<?xml version="1.0" encoding="UTF-8" standalone="no"?>
<svg width="186px" height="40px" viewBox="0 0 186 40" version="1.1" xmlns="http://www.w3.org/2000/svg" xmlns:xlink="http://www.w3.org/1999/xlink">
    <!-- Generator: Sketch 42 (36781) - http://www.bohemiancoding.com/sketch -->
    <title>Frontend Guys Logo</title>
    <desc>Created with Sketch.</desc>
    <defs>
        <polygon id="path-1" points="0.272992626 0.140625 16.4311034 0.140625 16.4311034 26.8874375 0.272992626 26.8874375"></polygon>
    </defs>
    <g id="Website" stroke="none" stroke-width="1" fill="none" fill-rule="evenodd">
        <g id="General-Design" transform="translate(-22.000000, -3620.000000)">
            <g id="#contact-us" transform="translate(2.000000, 3605.000000)">
                <g id="Menu">
                    <g id="Logo" transform="translate(20.000000, 14.000000)">
                        <g id="Frontend-Guys-Logo" transform="translate(0.234568, 0.500000)">
                            <g id="Frontend">
                                <path d="M26.0809298,4.224875 C26.2779799,4.468625 26.3768177,4.787375 26.3768177,5.181125 C26.3768177,6.474875 25.6818251,7.0755 24.2937164,6.981125 L23.3078402,6.89675 C22.2006061,6.803 21.0983765,6.728 20.0005257,6.67175 C18.902675,6.6155 17.7529031,6.587375 16.5524612,6.587375 L15.2850848,6.587375 C15.0605102,9.362375 14.8253012,11.89425 14.5813344,14.181125 L19.4231376,14.09675 C20.1175047,14.09675 20.5822928,14.21925 20.8168763,14.462375 C21.0514598,14.70675 21.1684387,15.03425 21.1684387,15.44675 C21.1684387,16.08425 20.9813975,16.5855 20.6054384,16.951125 C20.2301048,17.317375 19.6952544,17.499875 19.0015128,17.499875 L14.1872341,17.499875 L14.0189595,18.70925 C13.6248593,21.803 12.7841121,24.006125 11.4992201,25.318625 C10.2137026,26.631125 8.44525583,27.287375 6.19325434,27.287375 C4.9164946,27.287375 3.74420271,27.011125 2.674502,26.458 C1.60417573,25.904875 0.815975209,25.23425 0.309900428,24.44675 C0.102841402,24.128 0.000250222389,23.743625 0.000250222389,23.293625 C0.000250222389,22.843625 0.107220293,22.449875 0.32366266,22.112375 C0.53947947,21.774875 0.806591869,21.606125 1.12562541,21.606125 C1.35145112,21.606125 1.57102127,21.681125 1.78746363,21.831125 C2.00328044,21.98175 2.27977618,22.27175 2.61757641,22.703 C3.51900256,23.88425 4.63499441,24.474875 5.96805419,24.474875 C7.0377549,24.474875 7.93355105,24.03925 8.65669375,23.167375 C9.37858534,22.2955 9.84274787,20.92175 10.0491813,19.04675 L10.218707,17.499875 L8.86688056,17.499875 C8.43524694,17.499875 8.0649178,17.378 7.7552676,17.13425 C7.44561739,16.891125 7.29110507,16.543625 7.29110507,16.093625 C7.29110507,15.513 7.44061294,15.067375 7.74150537,14.758 C8.04114668,14.448 8.48216364,14.293625 9.06455625,14.293625 C9.58939771,14.293625 10.1061069,14.28425 10.6121817,14.2655 C10.8380074,12.203 11.0813487,9.699875 11.3440822,6.756125 C9.31728086,6.943625 7.89101324,7.27175 7.06590492,7.7405 C6.23954548,8.20925 5.82667854,8.903 5.82667854,9.82175 C5.82667854,10.45925 6.01434533,11.06925 6.38967891,11.649875 C6.50227899,11.818625 6.55920458,11.987375 6.55920458,12.156125 C6.55920458,12.493625 6.37091223,12.78925 5.99620421,13.04175 C5.62024507,13.2955 5.19799479,13.42175 4.72882781,13.42175 C4.22275303,13.42175 3.79049385,13.27175 3.4345525,12.97175 C3.2087268,12.78425 2.99353554,12.399875 2.78710207,11.818625 C2.58004305,11.238 2.47745187,10.591125 2.47745187,9.878 C2.47745187,7.553625 3.67351489,5.8655 6.06626648,4.8155 C8.45901807,3.7655 11.9539993,3.2405 16.5524612,3.2405 C19.7421711,3.2405 22.557173,3.40925 24.9974668,3.74675 C25.5223083,3.82175 25.8838796,3.981125 26.0809298,4.224875" id="F" fill="#FFFFFF"></path>
                                <path d="M21.9146019,26.077875 C21.6237184,25.3285 21.4785894,24.127875 21.4785894,22.477875 C21.4785894,20.041 21.8251474,17.72475 22.5201401,15.531 C22.6884146,14.98725 22.9655359,14.589125 23.3502528,14.336 C23.7349698,14.082875 24.274199,13.956 24.9691917,13.956 C25.3438997,13.956 25.6066332,14.0035 25.7573922,14.096625 C25.9075257,14.190375 25.9825924,14.369125 25.9825924,14.631 C25.9825924,14.931625 25.8412167,15.606625 25.5603421,16.656 C25.3720497,17.406 25.2225419,18.06225 25.1093162,18.62475 C24.9973417,19.18725 24.9028828,19.881 24.8284416,20.706 C25.4471165,19.0935 26.1414836,17.781 26.9109174,16.7685 C27.6809768,15.756 28.4360229,15.03475 29.1773067,14.602875 C29.9185905,14.171625 30.5991954,13.956 31.2184959,13.956 C32.4377044,13.956 33.0482471,14.566 33.0482471,15.784125 C33.0482471,16.027875 32.963797,16.6185 32.7948969,17.556 C32.6441379,18.306 32.5696968,18.77475 32.5696968,18.96225 C32.5696968,19.619125 32.8036547,19.946625 33.2734472,19.946625 C33.7982887,19.946625 34.4738891,19.53475 35.299623,18.709125 C35.5435898,18.466 35.79694,18.3435 36.0596735,18.3435 C36.3036403,18.3435 36.4969371,18.451625 36.6370617,18.66725 C36.7778118,18.882875 36.8484996,19.169125 36.8484996,19.52475 C36.8484996,20.2185 36.6602072,20.76225 36.2854992,21.156 C35.7600322,21.700375 35.1451107,22.164125 34.4413602,22.5485 C33.7376098,22.932875 32.991947,23.12475 32.203121,23.12475 C31.208487,23.12475 30.4534409,22.871625 29.9373572,22.365375 C29.4212736,21.859125 29.1635445,21.17475 29.1635445,20.31225 C29.1635445,20.031 29.1916945,19.74975 29.2479945,19.4685 C29.2849023,19.0935 29.3042946,18.840375 29.3042946,18.709125 C29.3042946,18.409125 29.2004523,18.259125 28.9940188,18.259125 C28.7131442,18.259125 28.3421895,18.5735 27.8824059,19.201625 C27.4226222,19.82975 26.967843,20.65975 26.5168172,21.690375 C26.0670424,22.721625 25.7010922,23.80975 25.419592,24.952875 C25.212533,25.83475 24.9735706,26.429125 24.7014537,26.739125 C24.4293369,27.0485 24.0020822,27.202875 23.4209407,27.202875 C22.7078069,27.202875 22.2054854,26.827875 21.9146019,26.077875" id="r" fill="#FFFFFF"></path>
                                <path d="M40.9153015,23.490625 C41.3556929,23.003125 41.6515809,22.3 41.8017143,21.38125 C41.2199473,20.9875 40.7739259,20.471875 40.4649012,19.834375 C40.155251,19.196875 40.0001131,18.521875 40.0001131,17.809375 C40.0001131,17.509375 40.0282632,17.209375 40.0845632,16.909375 L39.9438131,16.909375 C39.1931459,16.909375 38.5688411,17.270625 38.0721496,17.991875 C37.5742071,18.71375 37.3264869,19.73125 37.3264869,21.04375 C37.3264869,22.075 37.5272904,22.8625 37.930774,23.40625 C38.3348831,23.95 38.808429,24.221875 39.3526627,24.221875 C39.9531964,24.221875 40.4742846,23.978125 40.9153015,23.490625 M49.1488692,18.79375 C49.280236,19.0375 49.3465449,19.346875 49.3465449,19.721875 C49.3465449,20.621875 49.0738025,21.15625 48.5295688,21.325 C47.4035681,21.71875 46.1655928,21.94375 44.8137663,22 C44.4571994,23.575 43.753449,24.83625 42.7025149,25.7825 C41.6515809,26.73 40.4598968,27.203125 39.1280881,27.203125 C38.0020874,27.203125 37.0399823,26.93125 36.2423984,26.3875 C35.444189,25.84375 34.8392764,25.121875 34.4264094,24.221875 C34.0135425,23.321875 33.8077346,22.346875 33.8077346,21.296875 C33.8077346,19.871875 34.0792259,18.601875 34.6234596,17.48625 C35.1676933,16.370625 35.918986,15.49875 36.8754611,14.870625 C37.8325617,14.2425 38.8928791,13.928125 40.0564132,13.928125 C41.4826808,13.928125 42.6324527,14.42 43.5051032,15.404375 C44.3777538,16.38875 44.8888331,17.603125 45.039592,19.046875 C45.9210004,18.990625 46.9719344,18.803125 48.1923941,18.484375 C48.341902,18.446875 48.4732688,18.428125 48.5864944,18.428125 C48.8298357,18.428125 49.0175025,18.55 49.1488692,18.79375" id="o" fill="#FFFFFF"></path>
                                <path d="M47.4176431,26.077875 C47.1267595,25.3285 46.9816306,24.127875 46.9816306,22.477875 C46.9816306,20.041 47.3281886,17.72475 48.0231812,15.531 C48.1914558,14.98725 48.4685771,14.589125 48.853294,14.336 C49.2380109,14.082875 49.7772402,13.956 50.4722329,13.956 C50.8469409,13.956 51.1096744,14.0035 51.2604334,14.096625 C51.4105668,14.190375 51.4856335,14.369125 51.4856335,14.631 C51.4856335,14.931625 51.3442579,15.606625 51.0633833,16.656 C50.8750909,17.406 50.725583,18.06225 50.6123574,18.62475 C50.5003829,19.18725 50.4059239,19.881 50.3314828,20.706 C50.9501576,19.0935 51.6445248,17.781 52.4139586,16.7685 C53.184018,15.756 53.9390641,15.03475 54.6803479,14.602875 C55.4216317,14.171625 56.1022366,13.956 56.721537,13.956 C57.9407456,13.956 58.5512882,14.566 58.5512882,15.784125 C58.5512882,16.515375 58.3442292,17.83725 57.9319878,19.74975 C57.5747954,21.381 57.3971375,22.459125 57.3971375,22.984125 C57.3971375,23.734125 57.6692543,24.109125 58.213488,24.109125 C58.588196,24.109125 59.0335919,23.87975 59.5509267,23.420375 C60.0663848,22.961 60.7557475,22.215375 61.6196403,21.184125 C61.8442149,20.921625 62.0981906,20.790375 62.3796908,20.790375 C62.6236576,20.790375 62.8157033,20.902875 62.9564534,21.127875 C63.0972035,21.352875 63.1678913,21.66225 63.1678913,22.056 C63.1678913,22.806625 62.9896079,23.387875 62.6324154,23.79975 C61.8254482,24.794125 60.9584276,25.609125 60.0288514,26.246625 C59.0999008,26.88475 58.0439623,27.202875 56.8622871,27.202875 C55.9045609,27.202875 55.1820438,26.926625 54.6947357,26.3735 C54.206802,25.820375 53.9628352,25.019125 53.9628352,23.9685 C53.9628352,23.444125 54.0935764,22.506 54.3569355,21.156 C54.6002767,19.97475 54.7228857,19.159125 54.7228857,18.709125 C54.7228857,18.409125 54.619669,18.259125 54.4132355,18.259125 C54.1692687,18.259125 53.826464,18.5735 53.385447,19.201625 C52.9444301,19.82975 52.4940298,20.65975 52.0342461,21.690375 C51.5744625,22.721625 51.2041334,23.80975 50.9226332,24.952875 C50.7155741,25.83475 50.4766118,26.429125 50.2044949,26.739125 C49.9323781,27.0485 49.5051233,27.202875 48.9239818,27.202875 C48.210848,27.202875 47.7085266,26.827875 47.4176431,26.077875" id="n" fill="#FFFFFF"></path>
                                <path d="M67.5728688,6.2640625 C67.2250597,6.9671875 66.8972683,7.9421875 66.5876181,9.1890625 C66.2779679,10.4359375 66.0202389,11.8184375 65.8131798,13.3371875 C66.9204139,12.3809375 67.7505267,11.3078125 68.3047693,10.1171875 C68.8583863,8.9265625 69.1348821,7.8434375 69.1348821,6.8684375 C69.1348821,5.7628125 68.9284486,5.2096875 68.5162072,5.2096875 C68.234707,5.2096875 67.9200524,5.5609375 67.5728688,6.2640625 M74.0192231,21.1278125 C74.1599732,21.3534375 74.230661,21.6621875 74.230661,22.0565625 C74.230661,22.8065625 74.0511264,23.3878125 73.6951851,23.7996875 C72.8882179,24.7940625 72.006184,25.6096875 71.0497089,26.2465625 C70.0919827,26.8846875 68.994132,27.2028125 67.7555311,27.2028125 C63.9271286,27.2028125 62.0129273,24.5128125 62.0129273,19.1309375 C62.0129273,18.3065625 62.0410773,17.4715625 62.0973774,16.6284375 L60.9995266,16.6284375 C60.4371518,16.6284375 60.0561882,16.5253125 59.8597637,16.3184375 C59.662088,16.1128125 59.5638757,15.7840625 59.5638757,15.3340625 C59.5638757,14.2846875 59.986126,13.7590625 60.8312521,13.7590625 L62.4351776,13.7590625 C62.7542111,11.6965625 63.2421448,9.8128125 63.8989786,8.1059375 C64.5558123,6.4003125 65.3490173,5.0403125 66.2779679,4.0278125 C67.2069185,3.0153125 68.206557,2.5090625 69.2762577,2.5090625 C70.0638327,2.5090625 70.6837586,2.8565625 71.1335334,3.5496875 C71.5839337,4.2440625 71.8091338,5.1159375 71.8091338,6.1653125 C71.8091338,9.0721875 70.5892997,11.6034375 68.1496314,13.7590625 L71.3024335,13.7590625 C71.6020748,13.7590625 71.8185172,13.8253125 71.9498839,13.9559375 C72.0812507,14.0878125 72.1469341,14.3315625 72.1469341,14.6878125 C72.1469341,15.9809375 71.0866167,16.6284375 68.9666075,16.6284375 L65.5316797,16.6284375 C65.4941463,17.5659375 65.4753796,18.2971875 65.4753796,18.8215625 C65.4753796,20.7721875 65.7055842,22.1403125 66.1653679,22.9278125 C66.6245259,23.7153125 67.351422,24.1090625 68.3466815,24.1090625 C69.1536487,24.1090625 69.8667825,23.8659375 70.4860829,23.3778125 C71.1053834,22.8909375 71.8372838,22.1596875 72.6817844,21.1846875 C72.9069846,20.9221875 73.1609603,20.7903125 73.4424605,20.7903125 C73.6851762,20.7903125 73.878473,20.9028125 74.0192231,21.1278125" id="t" fill="#FFFFFF"></path>
                                <path d="M75.6513612,17.92175 C75.1728108,18.728 74.9338485,19.703625 74.9338485,20.84675 L74.9338485,20.903 C76.0410825,20.6405 76.9137331,20.24675 77.5518002,19.72175 C78.1898673,19.197375 78.5082753,18.587375 78.5082753,17.893625 C78.5082753,17.537375 78.410063,17.25175 78.2136384,17.036125 C78.0159627,16.8205 77.7488503,16.712375 77.4110501,16.712375 C76.7160574,16.712375 76.130537,17.1155 75.6513612,17.92175 M85.0816174,21.128 C85.2229931,21.353 85.2930553,21.662375 85.2930553,22.056125 C85.2930553,22.806125 85.1141463,23.388 84.758205,23.799875 C84.0632123,24.643625 83.0829661,25.42175 81.8162153,26.13425 C80.5494644,26.84675 79.1938846,27.203 77.7488503,27.203 C75.778349,27.203 74.2488647,26.668625 73.1603973,25.599875 C72.0713043,24.531125 71.5276962,23.068625 71.5276962,21.212375 C71.5276962,19.918625 71.799813,18.71425 72.3440467,17.598 C72.8882804,16.483 73.6433265,15.59675 74.6098105,14.9405 C75.5762944,14.28425 76.6691407,13.956125 77.8896004,13.956125 C78.9774423,13.956125 79.8500928,14.27925 80.5075522,14.92675 C81.1643859,15.573625 81.4928028,16.449875 81.4928028,17.556125 C81.4928028,18.849875 81.0286403,19.961125 80.0990641,20.88925 C79.1701135,21.81675 77.5980913,22.553 75.3842488,23.09675 C75.8527902,23.95925 76.744833,24.3905 78.0585005,24.3905 C78.9030011,24.3905 79.8644806,24.094875 80.9435647,23.504875 C82.0232743,22.913625 82.9566038,22.1405 83.7448043,21.18425 C83.9700045,20.92175 84.2233546,20.7905 84.5048548,20.7905 C84.7481961,20.7905 84.9414929,20.903 85.0816174,21.128" id="e" fill="#FFFFFF"></path>
                                <path d="M83.5050287,26.077875 C83.2141452,25.3285 83.0690162,24.127875 83.0690162,22.477875 C83.0690162,20.041 83.4155742,17.72475 84.1105669,15.531 C84.2788414,14.98725 84.5559627,14.589125 84.9406797,14.336 C85.3253966,14.082875 85.8646258,13.956 86.5596185,13.956 C86.9343265,13.956 87.1970601,14.0035 87.347819,14.096625 C87.4979525,14.190375 87.5730192,14.369125 87.5730192,14.631 C87.5730192,14.931625 87.4316435,15.606625 87.1507689,16.656 C86.9624766,17.406 86.8129687,18.06225 86.6997431,18.62475 C86.5877685,19.18725 86.4933096,19.881 86.4188684,20.706 C87.0375433,19.0935 87.7319104,17.781 88.5013443,16.7685 C89.2714037,15.756 90.0264497,15.03475 90.7677335,14.602875 C91.5090174,14.171625 92.1896223,13.956 92.8089227,13.956 C94.0281313,13.956 94.6386739,14.566 94.6386739,15.784125 C94.6386739,16.515375 94.4316149,17.83725 94.0193735,19.74975 C93.662181,21.381 93.4845231,22.459125 93.4845231,22.984125 C93.4845231,23.734125 93.75664,24.109125 94.3008737,24.109125 C94.6755817,24.109125 95.1209775,23.87975 95.6383123,23.420375 C96.1537704,22.961 96.8431331,22.215375 97.7070259,21.184125 C97.9316005,20.921625 98.1855762,20.790375 98.4670764,20.790375 C98.7110433,20.790375 98.9030889,20.902875 99.043839,21.127875 C99.1845891,21.352875 99.255277,21.66225 99.255277,22.056 C99.255277,22.806625 99.0769935,23.387875 98.719801,23.79975 C97.9128338,24.794125 97.0458133,25.609125 96.1162371,26.246625 C95.1872865,26.88475 94.131348,27.202875 92.9496728,27.202875 C91.9919466,27.202875 91.2694294,26.926625 90.7821213,26.3735 C90.2941877,25.820375 90.0502208,25.019125 90.0502208,23.9685 C90.0502208,23.444125 90.180962,22.506 90.4443211,21.156 C90.6876624,19.97475 90.8102713,19.159125 90.8102713,18.709125 C90.8102713,18.409125 90.7070546,18.259125 90.5006211,18.259125 C90.2566543,18.259125 89.9138496,18.5735 89.4728327,19.201625 C89.0318157,19.82975 88.5814154,20.65975 88.1216318,21.690375 C87.6618481,22.721625 87.291519,23.80975 87.0100188,24.952875 C86.8029598,25.83475 86.5639974,26.429125 86.2918806,26.739125 C86.0197637,27.0485 85.592509,27.202875 85.0113675,27.202875 C84.2982337,27.202875 83.7959122,26.827875 83.5050287,26.077875" id="n" fill="#FFFFFF"></path>
                                <g id="d" transform="translate(96.335620, 0.484313)">
                                    <mask id="mask-2" fill="white">
                                        <use xlink:href="#path-1"></use>
                                    </mask>
                                    <g id="Clip-16"></g>
                                    <path d="M11.7719625,7.0593125 C11.2934122,9.8343125 10.9699997,12.8530625 10.8010996,16.1155625 C12.884201,11.6155625 13.9257517,7.9593125 13.9257517,5.1468125 C13.9257517,4.4343125 13.8650728,3.8811875 13.7424638,3.4874375 C13.6204804,3.0936875 13.4753514,2.8968125 13.3064513,2.8968125 C12.761592,2.8968125 12.2511384,4.2849375 11.7719625,7.0593125 M6.2833344,23.4561875 C6.62989241,23.1749375 7.07528826,22.6311875 7.62014751,21.8249375 C7.43248072,20.4568125 7.33864732,19.0405625 7.33864732,17.5780625 C7.33864732,16.9968125 7.34803066,16.5474375 7.36679734,16.2280625 C6.33462999,16.5280625 5.48074609,17.2124375 4.80514564,18.2811875 C4.12954519,19.3499375 3.79174496,20.5311875 3.79174496,21.8249375 C3.79174496,23.1936875 4.26028639,23.8780625 5.1992459,23.8780625 C5.57457948,23.8780625 5.93552528,23.7374375 6.2833344,23.4561875 M11.7863503,24.8624375 C11.861417,25.1061875 11.8989504,25.3593125 11.8989504,25.6218125 C11.8989504,26.4655625 11.3828667,26.8874375 10.3506993,26.8874375 C9.76893227,26.8874375 9.32353642,26.7280625 9.01388621,26.4093125 C8.70423601,26.0905625 8.41773137,25.4905625 8.15499786,24.6093125 L8.12684784,24.4968125 C7.41308848,25.3786875 6.7706425,25.9686875 6.19888434,26.2686875 C5.62587507,26.5686875 4.96403685,26.7186875 4.21399524,26.7186875 C3.06922782,26.7186875 2.12588941,26.2924375 1.38523114,25.4393125 C0.643321761,24.5855625 0.272992626,23.4749375 0.272992626,22.1061875 C0.272992626,20.6061875 0.592026171,19.2193125 1.23009326,17.9436875 C1.86816035,16.6686875 2.74018538,15.6236875 3.848045,14.8074375 C4.95527907,13.9918125 6.19387989,13.4999375 7.56384747,13.3311875 C7.92041437,9.7874375 8.60101927,6.7036875 9.60441105,4.0780625 C10.6084284,1.4530625 11.9452415,0.1405625 13.6161015,0.1405625 C14.4224431,0.1405625 15.0942903,0.5061875 15.6285151,1.2374375 C16.163991,1.9686875 16.4311034,3.0749375 16.4311034,4.5561875 C16.4311034,6.6186875 15.924403,9.0280625 14.9110024,11.7843125 C13.8976017,14.5405625 12.5557841,17.3811875 10.8855497,20.3061875 C11.0919831,21.8436875 11.39225,23.3624375 11.7863503,24.8624375" id="Fill-15" fill="#FFFFFF" mask="url(#mask-2)"></path>
                                </g>
                            </g>
                            <g id="Guys" transform="translate(118.456790, 2.500000)" fill="#61C092">
                                <path d="M12.9448073,32.9718125 C13.5265744,31.8649375 14.0708081,30.0843125 14.5775084,27.6280625 C13.1512408,28.8468125 12.1240779,29.9486875 11.4953941,30.9324375 C10.8660848,31.9174375 10.5520557,32.7843125 10.5520557,33.5343125 C10.5520557,34.2655625 10.8147892,34.6311875 11.3402562,34.6311875 C11.8281899,34.6311875 12.3624147,34.0780625 12.9448073,32.9718125 M24.1910526,18.6986875 C24.3311771,18.9330625 24.4018649,19.2280625 24.4018649,19.5843125 C24.4018649,20.0161875 24.3361815,20.3536875 24.2048148,20.5968125 C24.073448,20.8405625 23.8670146,21.0568125 23.5855144,21.2436875 C22.4776547,21.9749375 20.7142125,23.1749375 18.2933109,24.8436875 C17.5614104,28.7249375 16.6136931,31.7805625 15.450159,34.0124375 C14.2866249,36.2436875 12.8134405,37.3593125 11.030606,37.3593125 C10.0735054,37.3593125 9.29468821,37.0636875 8.69415448,36.4736875 C8.09299519,35.8824375 7.79335388,35.1093125 7.79335388,34.1530625 C7.79335388,33.2711875 7.99040401,32.3811875 8.38450427,31.4811875 C8.77860454,30.5811875 9.51488391,29.5405625 10.593968,28.3593125 C11.6736776,27.1780625 13.1981575,25.8280625 15.1686588,24.3093125 L15.2531088,23.7749375 C13.7699156,24.3936875 12.315498,24.7030625 10.8898559,24.7030625 C8.78736232,24.7030625 6.93884442,24.2949375 5.34430225,23.4793125 C3.74913453,22.6636875 2.50990815,21.5061875 1.62849978,20.0061875 C0.746465864,18.5061875 0.305448905,16.7624375 0.305448905,14.7749375 C0.305448905,11.9999375 0.830915921,9.5480625 1.88184995,7.4199375 C2.93278398,5.2924375 4.38219717,3.6424375 6.23134062,2.4699375 C8.07923296,1.2986875 10.1479466,0.7124375 12.438107,0.7124375 C14.6338084,0.7124375 16.2808973,1.2236875 17.378748,2.2449375 C18.4765988,3.2674375 19.0252113,4.6218125 19.0252113,6.3093125 C19.0252113,7.4155625 18.8231568,8.3018125 18.4202987,8.9668125 C18.0161896,9.6330625 17.439427,9.9655625 16.6887598,9.9655625 C16.1820595,9.9655625 15.7735714,9.8436875 15.4639212,9.5999375 C15.154271,9.3561875 14.9997587,9.0186875 14.9997587,8.5874375 C14.9997587,8.4005625 15.037292,8.0811875 15.1123587,7.6311875 C15.2255844,7.1061875 15.2812589,6.6936875 15.2812589,6.3936875 C15.2812589,5.6061875 15.0422965,4.9968125 14.5637462,4.5655625 C14.0845703,4.1343125 13.2826075,3.9186875 12.1566068,3.9186875 C10.7866392,3.9186875 9.51488391,4.3124375 8.34259202,5.0999375 C7.16967458,5.8874375 6.22633617,7.0643125 5.51320237,8.6293125 C4.799443,10.1955625 4.44350165,12.0749375 4.44350165,14.2686875 C4.44350165,16.5186875 5.05842317,18.2580625 6.2870151,19.4855625 C7.51623259,20.7143125 9.29468821,21.3280625 11.6217564,21.3280625 C12.9166573,21.3280625 14.2678582,21.0374375 15.6753591,20.4561875 L16.0694594,17.0249375 L13.1981575,17.0249375 C12.6720649,17.0249375 12.2692069,16.8980625 11.9877067,16.6449375 C11.706832,16.3924375 11.5654564,15.9749375 11.5654564,15.3936875 C11.5654564,14.8686875 11.706832,14.4561875 11.9877067,14.1561875 C12.2692069,13.8568125 12.6445404,13.7061875 13.114333,13.7061875 L18.3777609,13.7061875 C18.7906279,13.7061875 19.1334325,13.8424375 19.4049238,14.1143125 C19.6770407,14.3861875 19.7852618,14.7749375 19.7289618,15.2811875 C19.6726618,15.8811875 19.484995,17.2405625 19.1659614,19.3593125 L18.8563112,21.4968125 C20.3576456,20.3718125 21.7276131,19.3968125 22.9668395,18.5718125 C23.2095552,18.4218125 23.4259976,18.3468125 23.6136644,18.3468125 C23.8570057,18.3468125 24.0503025,18.4643125 24.1910526,18.6986875" id="G"></path>
                                <path d="M24.6691024,23.53575 C24.1348776,22.757625 23.8671397,21.787625 23.8671397,20.625125 C23.8671397,19.218875 23.9603475,17.9295 24.1486399,16.757625 C24.3356811,15.586375 24.6453313,14.343875 25.0769649,13.03075 C25.2646317,12.46825 25.5279908,12.06575 25.865791,11.822 C26.2029657,11.57825 26.7384416,11.45575 27.4703421,11.45575 C27.8825835,11.45575 28.1690881,11.522 28.3292304,11.65325 C28.4874961,11.7845 28.5675672,11.981375 28.5675672,12.243875 C28.5675672,12.393875 28.4643505,12.900125 28.257917,13.762625 C28.0702502,14.456375 27.9201168,15.0845 27.8081423,15.646375 C27.4321832,17.615125 27.2445164,18.92825 27.2445164,19.5845 C27.2445164,19.97825 27.2914331,20.2545 27.385892,20.413875 C27.4790999,20.57325 27.6292333,20.65325 27.8356668,20.65325 C28.1177925,20.65325 28.469355,20.372 28.8916052,19.8095 C29.3138555,19.247 29.7648814,18.393875 30.2428061,17.2495 C30.7213564,16.106375 31.1861445,14.700125 31.6365448,13.03075 C31.7860527,12.46825 32.0162573,12.06575 32.3259075,11.822 C32.6355577,11.57825 33.1003458,11.45575 33.7196462,11.45575 C34.1506543,11.45575 34.4515467,11.507625 34.6198213,11.61075 C34.7893469,11.713875 34.8731714,11.906375 34.8731714,12.187625 C34.8731714,12.656375 34.6392135,13.94075 34.1700465,16.04075 C33.6445795,18.44075 33.381846,19.922 33.381846,20.4845 C33.381846,20.84075 33.4562872,21.117 33.6070461,21.313875 C33.756554,21.51075 33.9542297,21.608875 34.197571,21.608875 C34.5729046,21.608875 35.018926,21.380125 35.5350096,20.920125 C36.0510933,20.46075 36.7410816,19.71575 37.6043488,18.6845 C37.829549,18.422 38.0822736,18.290125 38.3643993,18.290125 C38.6077406,18.290125 38.8004118,18.40325 38.9411619,18.627625 C39.081912,18.85325 39.1519743,19.162 39.1519743,19.556375 C39.1519743,20.306375 38.9736908,20.887625 38.6177495,21.2995 C37.8107823,22.293875 36.9425106,23.1095 36.01356,23.746375 C35.0846093,24.3845 34.0292964,24.70325 32.8463701,24.70325 C31.946195,24.70325 31.2843568,24.356375 30.8621065,23.662625 C30.4404818,22.968875 30.2290439,21.993875 30.2290439,20.737 C29.9093848,22.012625 29.4308345,22.992 28.7933929,23.676375 C28.1547003,24.36075 27.4703421,24.70325 26.7384416,24.70325 C25.893941,24.70325 25.2039528,24.313875 24.6691024,23.53575" id="y"></path>
                                <path d="M41.713626,32.999875 C42.295393,31.912375 42.8771601,30.103 43.4589271,27.57175 C42.0132673,28.7905 40.9679633,29.901125 40.3198873,30.90425 C39.6724368,31.907375 39.34965,32.78425 39.34965,33.53425 C39.34965,33.853 39.4097033,34.1155 39.5323123,34.32175 C39.6536702,34.528 39.8557247,34.631125 40.1372249,34.631125 C40.6057664,34.631125 41.1318589,34.087375 41.713626,32.999875 M53.0436957,18.698625 C53.1850714,18.933 53.2551336,19.228 53.2551336,19.58425 C53.2551336,20.016125 53.1894503,20.353625 53.0580835,20.59675 C52.9267168,20.8405 52.7209088,21.05675 52.4394087,21.243625 L47.0339795,24.87175 C46.3208457,28.753 45.3875162,31.80425 44.2327399,34.02675 C43.0792147,36.248 41.6104092,37.35925 39.8275747,37.35925 C38.8704741,37.35925 38.0916569,37.063625 37.4911232,36.473625 C36.8905894,35.882375 36.5909481,35.10925 36.5909481,34.153 C36.5909481,33.27175 36.7917516,32.37175 37.1952352,31.453 C37.5993444,30.53425 38.3500115,29.47925 39.4478622,28.288625 C40.545713,27.098 42.0983429,25.73425 44.1063776,24.19675 L44.1908276,23.549875 C44.3221944,22.85675 44.4723278,21.862375 44.6418535,20.568625 C44.2658943,21.918625 43.7404273,22.9455 43.0648269,23.648625 C42.3892264,24.35175 41.6754671,24.703 40.9254255,24.703 C40.0815504,24.703 39.3915622,24.31425 38.8567119,23.5355 C38.3218615,22.758 38.0541235,21.788 38.0541235,20.624875 C38.0541235,19.218625 38.1479569,17.929875 38.3362493,16.758 C38.522665,15.586125 38.8329407,14.343625 39.2645743,13.031125 C39.4522411,12.468625 39.7156002,12.0655 40.0534004,11.82175 C40.3905751,11.578625 40.9254255,11.456125 41.6573259,11.456125 C42.0695673,11.456125 42.356072,11.52175 42.5162143,11.653 C42.6751055,11.78425 42.7551767,11.981125 42.7551767,12.243625 C42.7551767,12.393625 42.6519599,12.899875 42.4455265,13.762375 C42.2578597,14.456125 42.1077262,15.08425 41.9951262,15.64675 C41.8449927,16.4155 41.713626,17.15175 41.6010259,17.854875 C41.4890514,18.558 41.4321258,19.13425 41.4321258,19.58425 C41.4321258,20.29675 41.6291759,20.653 42.0232762,20.653 C42.3047764,20.653 42.6569644,20.37175 43.0792147,19.80925 C43.5008394,19.24675 43.9518652,18.393625 44.4304156,17.249875 C44.9083403,16.10675 45.373754,14.7005 45.8235287,13.031125 C45.9736621,12.468625 46.2038667,12.0655 46.5135169,11.82175 C46.8231671,11.578625 47.2873297,11.456125 47.9066301,11.456125 C48.3382637,11.456125 48.6385306,11.512375 48.8074307,11.624875 C48.9763308,11.737375 49.0607809,11.924875 49.0607809,12.187375 C49.0607809,12.656125 48.816814,14.268625 48.3288804,17.024875 L47.5969799,21.553 C49.0420142,20.4655 50.4495151,19.47175 51.8194827,18.57175 C52.0634495,18.42175 52.2792663,18.34675 52.4669331,18.34675 C52.7109,18.34675 52.9035712,18.46425 53.0436957,18.698625" id="y"></path>
                                <path d="M55.7177598,24.646625 C55.2016762,24.196625 54.9439471,23.690375 54.9439471,23.127875 C54.9439471,22.641 55.1222306,22.2185 55.4787975,21.86225 C55.8347388,21.506625 56.3602058,21.327875 57.0551985,21.327875 C57.2985398,21.327875 57.5850444,21.351625 57.9140869,21.3985 C58.2418782,21.445375 58.4908495,21.4785 58.6597496,21.496625 C58.6409829,21.00975 58.5327617,20.550375 58.3363371,20.1185 C58.1386614,19.68725 57.8903157,19.270375 57.5900489,18.86725 C57.289782,18.464125 57.0082818,18.11225 56.7455483,17.81225 C56.1637812,18.919125 55.5863931,19.83725 55.0140094,20.5685 C54.4416257,21.29975 53.8179464,21.9935 53.1423459,22.64975 C52.8045457,22.98725 52.4473532,23.156 52.0726452,23.156 C51.7717528,23.156 51.5284115,23.0485 51.3407447,22.832875 C51.1530779,22.61725 51.0592445,22.350375 51.0592445,22.031 C51.0592445,21.656 51.1906113,21.30975 51.4533448,20.990375 L51.819295,20.540375 C52.8508368,19.266 53.6302796,18.216 54.1557466,17.390375 C54.4747801,16.84725 54.8494881,16.120375 55.2817473,15.211 C55.7127554,14.301625 56.1356312,13.359125 56.5484982,12.384125 C56.9044395,11.55975 57.6463489,11.146625 58.7723496,11.146625 C59.2978167,11.146625 59.6637669,11.194125 59.8702004,11.28725 C60.0766338,11.381625 60.1798506,11.531625 60.1798506,11.73725 C60.1798506,11.84975 60.1416917,12.0285 60.0672505,12.271625 C59.9921838,12.515375 59.8883415,12.759125 59.7576003,13.002875 C59.4198001,13.677875 59.2502744,14.250375 59.2502744,14.7185 C59.2502744,14.99975 59.3497378,15.309125 59.5461624,15.646625 C59.7438381,15.984125 60.0484838,16.406 60.4613508,16.91225 C61.0618845,17.69975 61.5172892,18.370375 61.8269395,18.9235 C62.1365897,19.476625 62.291102,20.081 62.291102,20.73725 C62.291102,20.92475 62.2723353,21.18725 62.2348019,21.52475 C63.1543692,21.169125 64.2334533,20.221625 65.4720541,18.684125 C65.6972542,18.42225 65.9499789,18.290375 66.2321046,18.290375 C66.4754459,18.290375 66.6681171,18.402875 66.8088672,18.627875 C66.9496173,18.852875 67.0196796,19.16225 67.0196796,19.556 C67.0196796,20.269125 66.8413961,20.84975 66.4854548,21.29975 C65.5464953,22.462875 64.6506991,23.25475 63.7968152,23.676625 C62.9429313,24.0985 61.8869928,24.327875 60.6302509,24.365375 C59.8789582,25.002875 58.9881665,25.321625 57.9559991,25.321625 C56.9801318,25.321625 56.2338435,25.096625 55.7177598,24.646625" id="s"></path>
                            </g>
                        </g>
                    </g>
                </g>
            </g>
        </g>
    </g>
</svg>