<?xml version="1.0" encoding="UTF-8" standalone="no"?>
<svg width="526px" height="445px" viewBox="0 0 526 445" version="1.1" xmlns="http://www.w3.org/2000/svg" xmlns:xlink="http://www.w3.org/1999/xlink">
    <!-- Generator: Sketch 42 (36781) - http://www.bohemiancoding.com/sketch -->
    <title>Large Screen</title>
    <desc>Created with Sketch.</desc>
    <defs>
        <radialGradient cx="51.9306853%" cy="97.8016667%" fx="51.9306853%" fy="97.8016667%" r="57.7560052%" id="radialGradient-1">
            <stop stop-color="#FFFFFF" offset="35.52%"></stop>
            <stop stop-color="#4D4D4D" offset="100%"></stop>
        </radialGradient>
        <linearGradient x1="0.0131417805%" y1="51.6604651%" x2="100.060245%" y2="51.6604651%" id="linearGradient-2">
            <stop stop-color="#C2C2C2" stop-opacity="0" offset="0%"></stop>
            <stop stop-color="#ADADAD" stop-opacity="0.1957" offset="9.822762%"></stop>
            <stop stop-color="#9C9C9C" stop-opacity="0.4308" offset="21.62%"></stop>
            <stop stop-color="#929292" stop-opacity="0.6868" offset="34.47%"></stop>
            <stop stop-color="#8F8F8F" offset="50.18%"></stop>
            <stop stop-color="#939393" stop-opacity="0.717" offset="64.28%"></stop>
            <stop stop-color="#9F9F9F" stop-opacity="0.4397" offset="78.1%"></stop>
            <stop stop-color="#B2B2B2" stop-opacity="0.1654" offset="91.76%"></stop>
            <stop stop-color="#C2C2C2" stop-opacity="0" offset="100%"></stop>
        </linearGradient>
        <linearGradient x1="49.9896373%" y1="-4.77110187%" x2="49.9896373%" y2="89.1088358%" id="linearGradient-3">
            <stop stop-color="#777A80" offset="13.26%"></stop>
            <stop stop-color="#9C9EA3" offset="17.59%"></stop>
            <stop stop-color="#C1C3C5" offset="22.74%"></stop>
            <stop stop-color="#DCDDDE" offset="27.54%"></stop>
            <stop stop-color="#ECEDEE" offset="31.8%"></stop>
            <stop stop-color="#F2F3F3" offset="35.07%"></stop>
            <stop stop-color="#E8E9E9" offset="42.2%"></stop>
            <stop stop-color="#CBCCCF" offset="54.54%"></stop>
            <stop stop-color="#9E9FA5" offset="70.51%"></stop>
            <stop stop-color="#919299" offset="74.66%"></stop>
            <stop stop-color="#96979E" offset="77.47%"></stop>
            <stop stop-color="#BBBCC0" offset="100%"></stop>
        </linearGradient>
        <linearGradient x1="49.9896373%" y1="99.8571726%" x2="49.9896373%" y2="-0.0180873181%" id="linearGradient-4">
            <stop stop-color="#C2C2C2" stop-opacity="0" offset="0%"></stop>
            <stop stop-color="#FFFFFF" offset="31.4%"></stop>
            <stop stop-color="#F9F9F9" stop-opacity="0.7688" offset="42.59%"></stop>
            <stop stop-color="#E9E9E9" stop-opacity="0.4678" offset="57.14%"></stop>
            <stop stop-color="#CECECE" stop-opacity="0.1298" offset="73.5%"></stop>
            <stop stop-color="#C2C2C2" stop-opacity="0" offset="79.77%"></stop>
        </linearGradient>
        <linearGradient x1="-0.176129969%" y1="50.0005722%" x2="100.160828%" y2="50.0005722%" id="linearGradient-5">
            <stop stop-color="#737172" offset="0%"></stop>
            <stop stop-color="#BABABB" offset="100%"></stop>
        </linearGradient>
        <linearGradient x1="-0.00796877836%" y1="50.0382289%" x2="99.9926484%" y2="50.0382289%" id="linearGradient-6">
            <stop stop-color="#EDEEF0" offset="3.346221%"></stop>
            <stop stop-color="#BABABB" offset="100%"></stop>
        </linearGradient>
    </defs>
    <g id="Website" stroke="none" stroke-width="1" fill="none" fill-rule="evenodd">
        <g id="General-Design" transform="translate(-637.000000, -171.000000)">
            <g id="#hello" transform="translate(-1.000000, 0.000000)">
                <g id="Large-Screen" transform="translate(639.000000, 161.000000)">
                    <g id="Bottom" transform="translate(162.326087, 356.302440)" fill-rule="nonzero">
                        <g id="Group" transform="translate(0.000000, 5.691798)">
                            <path d="M202.385507,89.2663726 C200.961594,91.3533654 198.398551,92.4917251 195.835507,92.4917251 L106.698551,92.4917251 L96.6362319,92.4917251 L7.49927536,92.4917251 C4.93623188,92.4917251 2.46811594,91.3533654 0.949275362,89.2663726 C-0.379710145,87.4639698 -0.189855072,85.7564302 0.854347826,84.3334806 C3.1326087,81.0132648 9.58768116,78.6416821 13.2898551,76.8392793 C18.415942,74.27797 23.2572464,69.9142578 25.5355072,64.3173227 C25.6304348,64.0327327 25.7253623,63.7481428 25.8202899,63.4635529 C26.6746377,60.5227904 32.1804348,43.3525317 31.8956522,18.0240285 C31.8956522,15.3678559 31.8007246,12.7116832 31.6108696,9.86578401 C31.6108696,9.20174085 31.6108696,8.5376977 31.7057971,7.96851785 C32.3702899,4.17398554 34.9333333,1.32808631 38.9202899,1.32808631 L164.224638,1.32808631 C168.211594,1.32808631 170.774638,4.17398554 171.43913,7.96851785 C171.534058,8.5376977 171.628986,9.20174085 171.534058,9.86578401 C171.344203,12.6168199 171.344203,15.3678559 171.249275,18.0240285 C170.964493,43.3525317 176.47029,60.5227904 177.324638,63.4635529 C177.419565,63.7481428 177.514493,64.0327327 177.60942,64.3173227 C179.982609,69.9142578 184.728986,74.27797 189.855072,76.8392793 C193.462319,78.6416821 200.012319,81.0132648 202.29058,84.3334806 C203.524638,85.7564302 203.714493,87.3691065 202.385507,89.2663726 Z" id="Shape" fill="#5A5A5A"></path>
                            <path d="M202.385507,88.4126028 C200.961594,90.4995956 198.398551,91.6379553 195.835507,91.6379553 L106.698551,91.6379553 L96.6362319,91.6379553 L7.49927536,91.6379553 C4.93623188,91.6379553 2.46811594,90.4995956 0.949275362,88.4126028 C-0.379710145,86.6102 -0.189855072,84.9026605 0.854347826,83.4797108 C3.1326087,80.1594951 9.58768116,77.7879124 13.2898551,75.9855095 C18.415942,73.4242002 23.2572464,69.0604881 25.5355072,63.4635529 C25.6304348,63.178963 25.7253623,62.8943731 25.8202899,62.6097831 C26.6746377,59.6690206 32.75,42.8782151 32.4652174,17.265122 C32.4652174,14.6089494 32.3702899,11.8579135 32.1804348,9.01201424 C32.1804348,8.34797108 32.1804348,7.68392793 32.2753623,7.11474808 C32.9398551,3.32021577 34.9333333,0.569179847 38.9202899,0.569179847 L164.224638,0.569179847 C168.211594,0.569179847 170.110145,3.32021577 170.869565,7.11474808 C170.964493,7.77879124 171.05942,8.34797108 170.964493,9.01201424 C170.869565,11.8579135 170.774638,14.6089494 170.67971,17.265122 C170.394928,42.8782151 176.47029,59.6690206 177.324638,62.6097831 C177.419565,62.8943731 177.514493,63.178963 177.60942,63.4635529 C179.982609,69.0604881 184.728986,73.4242002 189.855072,75.9855095 C193.462319,77.7879124 200.012319,80.1594951 202.29058,83.4797108 C203.524638,84.9026605 203.714493,86.5153367 202.385507,88.4126028 Z" id="Shape" fill="url(#radialGradient-1)"></path>
                        </g>
                        <path d="M195.930435,90.1201424 L106.603623,90.1201424 L96.5413043,90.1201424 L7.21449275,90.1201424 C5.12608696,90.1201424 3.03768116,89.3612359 1.61376812,87.7485597 C1.51884058,87.6536964 1.42391304,87.5588331 1.32898551,87.3691065 C1.13913043,87.5588331 0.949275362,87.843423 0.75942029,88.0331496 C0.949275362,88.4126028 1.23405797,88.6971928 1.61376812,89.076646 C3.03768116,90.5944589 5.12608696,91.4482287 7.21449275,91.4482287 L96.5413043,91.4482287 L106.603623,91.4482287 L195.930435,91.4482287 C198.208696,91.4482287 200.392029,90.4995956 201.815942,88.7920561 C202.005797,88.6023295 202.195652,88.3177395 202.29058,88.1280129 C202.100725,87.9382863 201.91087,87.6536964 201.721014,87.4639698 C200.392029,89.1715093 198.208696,90.1201424 195.930435,90.1201424 Z" id="Shape" fill="url(#linearGradient-2)"></path>
                        <g id="Group">
                            <path d="M202.385507,88.1280129 C202.29058,88.3177395 202.100725,88.6023295 201.91087,88.7920561 C200.486957,90.4995956 198.208696,91.4482287 196.025362,91.4482287 L106.698551,91.4482287 L96.6362319,91.4482287 L7.30942029,91.4482287 C5.22101449,91.4482287 3.1326087,90.6893222 1.70869565,89.076646 C1.32898551,88.6971928 1.0442029,88.3177395 0.854347826,88.0331496 C3.1326087,84.7129338 9.58768116,82.3413511 13.2898551,80.5389483 C18.415942,77.977639 23.2572464,73.6139268 25.5355072,68.0169917 C25.6304348,67.7324017 25.7253623,67.4478118 25.8202899,67.1632219 C26.6746377,64.2224594 31.326087,47.0522007 31.0413043,21.7236975 C31.0413043,18.498345 31.0413043,15.1781292 30.9463768,11.6681869 C30.9463768,10.6246905 30.8514493,9.58119408 30.7565217,8.44283439 C30.5666667,3.98425893 34.0789855,0.189726616 38.6355072,0.189726616 L164.604348,0.189726616 C169.065942,0.189726616 172.673188,3.98425893 172.483333,8.44283439 C172.388406,9.48633078 172.388406,10.6246905 172.293478,11.6681869 C172.198551,15.1781292 172.103623,18.498345 172.198551,21.7236975 C171.913768,47.0522007 176.565217,64.2224594 177.419565,67.1632219 C177.514493,67.4478118 177.60942,67.7324017 177.704348,68.0169917 C180.077536,73.6139268 184.823913,77.977639 189.95,80.5389483 C193.652174,82.4362145 200.107246,84.8077971 202.385507,88.1280129 Z" id="Shape" fill="url(#linearGradient-3)"></path>
                            <path d="M164.604348,1.32808631 C166.502899,1.32808631 168.306522,2.08699277 169.635507,3.50994239 C170.964493,4.932892 171.628986,6.73529485 171.534058,8.5376977 C171.43913,9.58119408 171.43913,10.6246905 171.344203,11.5733235 L171.344203,11.7630502 C171.249275,15.0832659 171.154348,18.4034817 171.249275,21.8185608 C170.964493,47.147064 175.615942,64.3173227 176.565217,67.5426751 C176.660145,67.8272651 176.755072,68.111855 176.85,68.4913082 C179.128261,73.8985168 183.77971,78.6416821 189.57029,81.4875814 C190.234783,81.8670346 191.08913,82.1516245 191.943478,82.6259411 C195.076087,84.0488907 199.252899,85.9461568 201.246377,88.1280129 C201.246377,88.1280129 201.246377,88.2228762 201.151449,88.2228762 C199.917391,89.7406892 198.018841,90.5944589 195.930435,90.5944589 L106.603623,90.5944589 L96.5413043,90.5944589 L7.21449275,90.5944589 C5.31594203,90.5944589 3.51231884,89.8355525 2.27826087,88.6023295 C2.18333333,88.5074662 1.99347826,88.3177395 1.89855072,88.2228762 C3.79710145,86.0410201 8.06884058,84.0488907 11.2014493,82.7208044 C12.0557971,82.3413511 12.8152174,81.9618979 13.5746377,81.5824447 C19.4601449,78.7365455 24.0166667,73.9933801 26.2949275,68.5861715 C26.3898551,68.3015816 26.4847826,68.0169917 26.5797101,67.6375384 C27.5289855,64.412186 32.1804348,47.2419273 31.8956522,21.9134241 C31.8956522,18.498345 31.8956522,15.0832659 31.8007246,11.8579135 L31.8007246,11.6681869 C31.8007246,10.6246905 31.7057971,9.67605739 31.6108696,8.63256101 C31.515942,6.73529485 32.1804348,4.932892 33.5094203,3.6048057 C34.8384058,2.18185608 36.642029,1.42294962 38.5405797,1.42294962 L164.604348,1.42294962 L164.604348,1.32808631 Z M164.604348,0.379453231 L38.6355072,0.379453231 C34.173913,0.379453231 30.5666667,4.17398554 30.7565217,8.63256101 C30.8514493,9.67605739 30.8514493,10.8144171 30.9463768,11.8579135 C31.0413043,15.3678559 31.1362319,18.6880716 31.0413043,21.9134241 C31.326087,47.2419273 26.6746377,64.412186 25.8202899,67.3529485 C25.7253623,67.6375384 25.6304348,67.9221284 25.5355072,68.2067183 C23.1623188,73.8036534 18.415942,78.1673656 13.2898551,80.7286749 C9.6826087,82.5310778 3.1326087,84.9026605 0.854347826,88.2228762 C1.0442029,88.6023295 1.32898551,88.8869194 1.70869565,89.2663726 C3.1326087,90.7841855 5.22101449,91.6379553 7.30942029,91.6379553 L96.6362319,91.6379553 L106.698551,91.6379553 L196.025362,91.6379553 C198.303623,91.6379553 200.486957,90.6893222 201.91087,88.9817827 C202.100725,88.7920561 202.29058,88.5074662 202.385507,88.3177395 C200.107246,84.9975238 193.652174,82.6259411 189.95,80.8235382 C184.823913,78.2622289 179.982609,73.8985168 177.704348,68.3015816 C177.60942,68.0169917 177.514493,67.7324017 177.419565,67.4478118 C176.565217,64.5070493 171.913768,47.3367906 172.198551,22.0082874 C172.198551,18.7829349 172.198551,15.4627192 172.293478,11.9527768 C172.293478,10.9092804 172.388406,9.86578401 172.483333,8.72742432 C172.673188,4.07912223 169.065942,0.379453231 164.604348,0.379453231 L164.604348,0.379453231 Z" id="Shape" fill="url(#linearGradient-4)"></path>
                        </g>
                    </g>
                    <path d="M523.715217,29.8777982 L523.715217,345.867476 C523.715217,356.01785 515.551449,364.176095 505.394203,364.176095 L19.0804348,364.176095 C8.92318841,364.176095 0.75942029,355.922987 0.75942029,345.867476 L0.75942029,29.8777982 C0.75942029,19.7274243 9.01811594,11.5691798 19.0804348,11.5691798 L505.394203,11.5691798 C515.456522,11.4743165 523.715217,19.7274243 523.715217,29.8777982 Z" id="Shape" stroke="url(#linearGradient-5)" stroke-width="1.8528" fill="#231F20" fill-rule="nonzero"></path>
                    <path d="M523.715217,320.254383 L523.715217,345.867476 C523.715217,356.01785 515.551449,364.176095 505.394203,364.176095 L19.0804348,364.176095 C8.92318841,364.176095 0.75942029,355.922987 0.75942029,345.867476 L0.75942029,320.254383 L523.715217,320.254383 Z" id="Shape" fill="url(#linearGradient-6)" fill-rule="nonzero"></path>
                    <g id="Screen-contents" transform="translate(23.731884, 0.024028)"></g>
                </g>
            </g>
        </g>
    </g>
</svg>