<?xml version="1.0" encoding="UTF-8" standalone="no"?>
<svg width="149px" height="32px" viewBox="0 0 149 32" version="1.1" xmlns="http://www.w3.org/2000/svg" xmlns:xlink="http://www.w3.org/1999/xlink">
    <!-- Generator: Sketch 42 (36781) - http://www.bohemiancoding.com/sketch -->
    <title>Frontend Guys Logo</title>
    <desc>Created with Sketch.</desc>
    <defs>
        <polygon id="path-1" points="0.21893468 0.1125 13.1774195 0.1125 13.1774195 21.50995 0.21893468 21.50995"></polygon>
    </defs>
    <g id="Symbols" stroke="none" stroke-width="1" fill="none" fill-rule="evenodd">
        <g id="Logo" transform="translate(-5.000000, -6.000000)">
            <g id="Frontend-Guys-Logo" transform="translate(5.000000, 6.000000)">
                <g id="Frontend">
                    <path d="M20.9163892,3.3799 C21.0744195,3.5749 21.1536855,3.8299 21.1536855,4.1449 C21.1536855,5.1799 20.5963152,5.6604 19.4830795,5.5849 L18.6924263,5.5174 C17.8044465,5.4424 16.9204801,5.3824 16.0400256,5.3374 C15.159571,5.2924 14.2374768,5.2699 13.2747461,5.2699 L12.2583354,5.2699 C12.078231,7.4899 11.889598,9.5154 11.6939414,11.3449 L15.5769717,11.2774 C16.1338404,11.2774 16.5065912,11.3754 16.6947226,11.5699 C16.8828539,11.7654 16.9766687,12.0274 16.9766687,12.3574 C16.9766687,12.8674 16.8266653,13.2684 16.5251535,13.5609 C16.2241434,13.8539 15.795204,13.9999 15.238837,13.9999 L11.3778808,13.9999 L11.2429279,14.9674 C10.9268673,17.4424 10.2526047,19.2049 9.2221468,20.2549 C8.19118721,21.3049 6.77292795,21.8299 4.96686734,21.8299 C3.94293131,21.8299 3.00277643,21.6089 2.14489764,21.1664 C1.28651717,20.7239 0.65439596,20.1874 0.248534007,19.5574 C0.0824767677,19.3024 0.000200673401,18.9949 0.000200673401,18.6349 C0.000200673401,18.2749 0.0859885522,17.9599 0.259571044,17.6899 C0.432651852,17.4199 0.646870707,17.2849 0.902729293,17.2849 C1.08383704,17.2849 1.25992795,17.3449 1.43351044,17.4649 C1.60659125,17.5854 1.82833535,17.8174 2.09924444,18.1624 C2.82217037,19.1074 3.71717374,19.5799 4.78626128,19.5799 C5.64414007,19.5799 6.36255084,19.2314 6.94249697,18.5339 C7.52143973,17.8364 7.89368889,16.7374 8.05924444,15.2374 L8.19520067,13.9999 L7.11106263,13.9999 C6.76490101,13.9999 6.46790438,13.9024 6.21957104,13.7074 C5.97123771,13.5129 5.84732189,13.2349 5.84732189,12.8749 C5.84732189,12.4104 5.96722424,12.0539 6.20853401,11.8064 C6.4488404,11.5584 6.80252727,11.4349 7.26959461,11.4349 C7.69050707,11.4349 8.10489764,11.4274 8.5107596,11.4124 C8.69186734,9.7624 8.88702222,7.7599 9.09772929,5.4049 C7.47227475,5.5549 6.32843636,5.8174 5.66671582,6.1924 C5.00399192,6.5674 4.67288081,7.1224 4.67288081,7.8574 C4.67288081,8.3674 4.82338586,8.8554 5.12439596,9.3199 C5.21469899,9.4549 5.26035219,9.5899 5.26035219,9.7249 C5.26035219,9.9949 5.10934545,10.2314 4.80883704,10.4334 C4.50732525,10.6364 4.16868889,10.7374 3.79242626,10.7374 C3.38656431,10.7374 3.03990101,10.6174 2.7544431,10.3774 C2.57333535,10.2274 2.40075623,9.9199 2.23520067,9.4549 C2.06914343,8.9904 1.98686734,8.4729 1.98686734,7.9024 C1.98686734,6.0429 2.9460862,4.6924 4.86502559,3.8524 C6.78396498,3.0124 9.58687071,2.5924 13.2747461,2.5924 C15.8328303,2.5924 18.0904061,2.7274 20.0474734,2.9974 C20.4683859,3.0574 20.7583589,3.1849 20.9163892,3.3799" id="F" fill="#FFFFFF"></path>
                    <path d="M17.5750768,20.8623 C17.3417939,20.2628 17.2254034,19.3023 17.2254034,17.9823 C17.2254034,16.0328 17.503336,14.1798 18.0607064,12.4248 C18.1956593,11.9898 18.4179051,11.6713 18.7264404,11.4688 C19.0349758,11.2663 19.4674269,11.1648 20.0247973,11.1648 C20.3253057,11.1648 20.5360128,11.2028 20.6569185,11.2773 C20.7773226,11.3523 20.8375246,11.4953 20.8375246,11.7048 C20.8375246,11.9453 20.7241441,12.4853 20.4988882,13.3248 C20.3478815,13.9248 20.2279791,14.4498 20.1371744,14.8998 C20.0473731,15.3498 19.9716189,15.9048 19.9119185,16.5648 C20.4080835,15.2748 20.9649522,14.2248 21.5820229,13.4148 C22.1995953,12.6048 22.8051273,12.0278 23.3996222,11.6823 C23.9941172,11.3373 24.5399488,11.1648 25.0366155,11.1648 C26.0143966,11.1648 26.5040397,11.6528 26.5040397,12.6273 C26.5040397,12.8223 26.4363125,13.2948 26.3008579,14.0448 C26.1799522,14.6448 26.1202519,15.0198 26.1202519,15.1698 C26.1202519,15.6953 26.3078815,15.9573 26.6846458,15.9573 C27.1055582,15.9573 27.6473764,15.6278 28.3095987,14.9673 C28.5052552,14.7728 28.708437,14.6748 28.9191441,14.6748 C29.1148007,14.6748 29.2698209,14.7613 29.382198,14.9338 C29.4950768,15.1063 29.551767,15.3353 29.551767,15.6198 C29.551767,16.1748 29.4007603,16.6098 29.1002519,16.9248 C28.6788377,17.3603 28.1856828,17.7313 27.6212889,18.0388 C27.0568949,18.3463 26.4588882,18.4998 25.8262653,18.4998 C25.0285886,18.4998 24.4230566,18.2973 24.0091677,17.8923 C23.5952788,17.4873 23.3885852,16.9398 23.3885852,16.2498 C23.3885852,16.0248 23.4111609,15.7998 23.4563125,15.5748 C23.4859118,15.2748 23.501464,15.0723 23.501464,14.9673 C23.501464,14.7273 23.4181845,14.6073 23.252629,14.6073 C23.0273731,14.6073 22.7298747,14.8588 22.3611374,15.3613 C21.9924,15.8638 21.6276761,16.5278 21.2659623,17.3523 C20.9052519,18.1773 20.611767,19.0478 20.3860094,19.9623 C20.2199522,20.6678 20.0283091,21.1433 19.8100768,21.3913 C19.5918444,21.6388 19.2491946,21.7623 18.7831306,21.7623 C18.2112114,21.7623 17.8083596,21.4623 17.5750768,20.8623" id="r" fill="#FFFFFF"></path>
                    <path d="M32.8132616,18.7925 C33.1664468,18.4025 33.4037431,17.84 33.5241471,17.105 C33.0575815,16.79 32.6998811,16.3775 32.4520495,15.8675 C32.2037162,15.3575 32.0792987,14.8175 32.0792987,14.2475 C32.0792987,14.0075 32.1018744,13.7675 32.1470259,13.5275 L32.0341471,13.5275 C31.4321269,13.5275 30.9314468,13.8165 30.5331101,14.3935 C30.13377,14.971 29.9351034,15.785 29.9351034,16.835 C29.9351034,17.66 30.0961438,18.29 30.4197296,18.725 C30.7438172,19.16 31.1235916,19.3775 31.5600562,19.3775 C32.0416724,19.3775 32.4595747,19.1825 32.8132616,18.7925 M39.4164199,15.035 C39.5217734,15.23 39.5749519,15.4775 39.5749519,15.7775 C39.5749519,16.4975 39.3562178,16.925 38.9197532,17.06 C38.0167229,17.375 37.0238912,17.555 35.9397532,17.6 C35.6537936,18.86 35.0893997,19.869 34.2465714,20.626 C33.4037431,21.384 32.448036,21.7625 31.3799519,21.7625 C30.4769215,21.7625 29.7053323,21.545 29.0656859,21.11 C28.4255377,20.675 27.9404098,20.0975 27.6092987,19.3775 C27.2781875,18.6575 27.1131337,17.8775 27.1131337,17.0375 C27.1131337,15.8975 27.3308643,14.8815 27.767329,13.989 C28.2037936,13.0965 28.8063155,12.399 29.5733896,11.8965 C30.3409653,11.394 31.1913189,11.1425 32.1244502,11.1425 C33.2682886,11.1425 34.1903828,11.536 34.8902313,12.3235 C35.5900798,13.111 35.9999552,14.0825 36.1208609,15.2375 C36.827733,15.1925 37.6705613,15.0425 38.6493458,14.7875 C38.7692481,14.7575 38.8746017,14.7425 38.9654064,14.7425 C39.1605613,14.7425 39.3110663,14.84 39.4164199,15.035" id="o" fill="#FFFFFF"></path>
                    <path d="M38.0280108,20.8623 C37.7947279,20.2628 37.6783374,19.3023 37.6783374,17.9823 C37.6783374,16.0328 37.95627,14.1798 38.5136404,12.4248 C38.6485933,11.9898 38.8708391,11.6713 39.1793744,11.4688 C39.4879098,11.2663 39.9203609,11.1648 40.4777313,11.1648 C40.7782397,11.1648 40.9889468,11.2028 41.1098525,11.2773 C41.2302566,11.3523 41.2904586,11.4953 41.2904586,11.7048 C41.2904586,11.9453 41.1770781,12.4853 40.9518222,13.3248 C40.8008155,13.9248 40.6809131,14.4498 40.5901084,14.8998 C40.5003071,15.3498 40.4245529,15.9048 40.3648525,16.5648 C40.8610175,15.2748 41.4178862,14.2248 42.0349569,13.4148 C42.6525293,12.6048 43.2580613,12.0278 43.8525562,11.6823 C44.4470512,11.3373 44.9928828,11.1648 45.4895495,11.1648 C46.4673306,11.1648 46.9569737,11.6528 46.9569737,12.6273 C46.9569737,13.2123 46.7909165,14.2698 46.4603071,15.7998 C46.1738458,17.1048 46.0313677,17.9673 46.0313677,18.3873 C46.0313677,18.9873 46.2496,19.2873 46.6860646,19.2873 C46.9865731,19.2873 47.3437717,19.1038 47.758664,18.7363 C48.1720512,18.3688 48.7249064,17.7723 49.4177313,16.9473 C49.5978357,16.7373 49.8015192,16.6323 50.0272768,16.6323 C50.2229333,16.6323 50.3769502,16.7223 50.489829,16.9023 C50.6027077,17.0823 50.659398,17.3298 50.659398,17.6448 C50.659398,18.2453 50.5164182,18.7103 50.2299569,19.0398 C49.5827852,19.8353 48.8874519,20.4873 48.1419502,20.9973 C47.3969502,21.5078 46.5501084,21.7623 45.6024283,21.7623 C44.8343508,21.7623 44.2549064,21.5413 43.8640949,21.0988 C43.4727818,20.6563 43.2771253,20.0153 43.2771253,19.1748 C43.2771253,18.7553 43.3819771,18.0048 43.5931859,16.9248 C43.7883407,15.9798 43.8866707,15.3273 43.8866707,14.9673 C43.8866707,14.7273 43.8038929,14.6073 43.6383374,14.6073 C43.4426808,14.6073 43.1677582,14.8588 42.8140714,15.3613 C42.4603845,15.8638 42.0991724,16.5278 41.730435,17.3523 C41.3616976,18.1773 41.064701,19.0478 40.8389434,19.9623 C40.6728862,20.6678 40.4812431,21.1433 40.2630108,21.3913 C40.0447785,21.6388 39.7021286,21.7623 39.2360646,21.7623 C38.6641455,21.7623 38.2612936,21.4623 38.0280108,20.8623" id="n" fill="#FFFFFF"></path>
                    <path d="M54.1921027,5.01125 C53.9131667,5.57375 53.6502845,6.35375 53.4019512,7.35125 C53.1536178,8.34875 52.9469242,9.45475 52.780867,10.66975 C53.6688468,9.90475 54.3345808,9.04625 54.7790724,8.09375 C55.2230623,7.14125 55.4448064,6.27475 55.4448064,5.49475 C55.4448064,4.61025 55.2792508,4.16775 54.9486414,4.16775 C54.7228838,4.16775 54.470537,4.44875 54.1921027,5.01125 M59.3619512,16.90225 C59.47483,17.08275 59.5315202,17.32975 59.5315202,17.64525 C59.5315202,18.24525 59.387537,18.71025 59.1020791,19.03975 C58.4549074,19.83525 57.7475337,20.48775 56.9804596,20.99725 C56.2123822,21.50775 55.3319276,21.76225 54.3385943,21.76225 C51.2682912,21.76225 49.7331397,19.61025 49.7331397,15.30475 C49.7331397,14.64525 49.7557155,13.97725 49.800867,13.30275 L48.9204125,13.30275 C48.469399,13.30275 48.1638737,13.22025 48.0063451,13.05475 C47.8478131,12.89025 47.7690488,12.62725 47.7690488,12.26725 C47.7690488,11.42775 48.1076852,11.00725 48.7854596,11.00725 L50.0717761,11.00725 C50.3276347,9.35725 50.7189478,7.85025 51.2457155,6.48475 C51.7724832,5.12025 52.4086178,4.03225 53.1536178,3.22225 C53.8986178,2.41225 54.7003081,2.00725 55.5581869,2.00725 C56.1898064,2.00725 56.6869747,2.28525 57.0476852,2.83975 C57.4088973,3.39525 57.5895034,4.09275 57.5895034,4.93225 C57.5895034,7.25775 56.6112205,9.28275 54.6546549,11.00725 L57.1831397,11.00725 C57.4234461,11.00725 57.5970286,11.06025 57.7023822,11.16475 C57.8077357,11.27025 57.8604125,11.46525 57.8604125,11.75025 C57.8604125,12.78475 57.0100589,13.30275 55.3098535,13.30275 L52.5551094,13.30275 C52.5250084,14.05275 52.5099579,14.63775 52.5099579,15.05725 C52.5099579,16.61775 52.6945774,17.71225 53.0633148,18.34225 C53.4315505,18.97225 54.0145067,19.28725 54.8126852,19.28725 C55.4598569,19.28725 56.0317761,19.09275 56.5284428,18.70225 C57.0251094,18.31275 57.6120791,17.72775 58.2893519,16.94775 C58.4699579,16.73775 58.6736414,16.63225 58.899399,16.63225 C59.0940522,16.63225 59.2490724,16.72225 59.3619512,16.90225" id="t" fill="#FFFFFF"></path>
                    <path d="M60.6708936,14.3374 C60.2871057,14.9824 60.0954626,15.7629 60.0954626,16.6774 L60.0954626,16.7224 C60.9834424,16.5124 61.6832909,16.1974 62.1950081,15.7774 C62.7067253,15.3579 62.9620822,14.8699 62.9620822,14.3149 C62.9620822,14.0299 62.8833178,13.8014 62.7257892,13.6289 C62.5672572,13.4564 62.3530384,13.3699 62.0821293,13.3699 C61.5247589,13.3699 61.0551832,13.6924 60.6708936,14.3374 M68.2337724,16.9024 C68.3471529,17.0824 68.4033414,17.3299 68.4033414,17.6449 C68.4033414,18.2449 68.2598599,18.7104 67.974402,19.0399 C67.4170316,19.7149 66.6308936,20.3374 65.6149845,20.9074 C64.5990754,21.4774 63.5119273,21.7624 62.3530384,21.7624 C60.7727354,21.7624 59.5461192,21.3349 58.6731899,20.4799 C57.7997589,19.6249 57.363796,18.4549 57.363796,16.9699 C57.363796,15.9349 57.5820283,14.9714 58.0184929,14.0784 C58.4549576,13.1864 59.0604896,12.4774 59.8355906,11.9524 C60.6106916,11.4274 61.4871327,11.1649 62.4659172,11.1649 C63.3383448,11.1649 64.0381933,11.4234 64.5654626,11.9414 C65.0922303,12.4589 65.3556141,13.1599 65.3556141,14.0449 C65.3556141,15.0799 64.983365,15.9689 64.2378633,16.7114 C63.4928633,17.4534 62.2321327,18.0424 60.4566747,18.4774 C60.8324357,19.1674 61.5478364,19.5124 62.6013717,19.5124 C63.2786444,19.5124 64.049732,19.2759 64.915136,18.8039 C65.7810418,18.3309 66.5295535,17.7124 67.1616747,16.9474 C67.3422808,16.7374 67.5454626,16.6324 67.7712202,16.6324 C67.9663751,16.6324 68.1213953,16.7224 68.2337724,16.9024" id="e" fill="#FFFFFF"></path>
                    <path d="M66.9693795,20.8623 C66.7360966,20.2628 66.6197061,19.3023 66.6197061,17.9823 C66.6197061,16.0328 66.8976387,14.1798 67.4550091,12.4248 C67.589962,11.9898 67.8122077,11.6713 68.1207431,11.4688 C68.4292785,11.2663 68.8617296,11.1648 69.4191,11.1648 C69.7196084,11.1648 69.9303155,11.2028 70.0512212,11.2773 C70.1716253,11.3523 70.2318273,11.4953 70.2318273,11.7048 C70.2318273,11.9453 70.1184468,12.4853 69.8931909,13.3248 C69.7421842,13.9248 69.6222818,14.4498 69.5314771,14.8998 C69.4416758,15.3498 69.3659215,15.9048 69.3062212,16.5648 C69.8023862,15.2748 70.3592549,14.2248 70.9763256,13.4148 C71.593898,12.6048 72.19943,12.0278 72.7939249,11.6823 C73.3884199,11.3373 73.9342515,11.1648 74.4309182,11.1648 C75.4086993,11.1648 75.8983424,11.6528 75.8983424,12.6273 C75.8983424,13.2123 75.7322852,14.2698 75.4016758,15.7998 C75.1152145,17.1048 74.9727364,17.9673 74.9727364,18.3873 C74.9727364,18.9873 75.1909687,19.2873 75.6274333,19.2873 C75.9279418,19.2873 76.2851404,19.1038 76.7000327,18.7363 C77.1134199,18.3688 77.6662751,17.7723 78.3591,16.9473 C78.5392044,16.7373 78.7428879,16.6323 78.9686455,16.6323 C79.164302,16.6323 79.3183189,16.7223 79.4311976,16.9023 C79.5440764,17.0823 79.6007667,17.3298 79.6007667,17.6448 C79.6007667,18.2453 79.4577869,18.7103 79.1713256,19.0398 C78.5241539,19.8353 77.8288205,20.4873 77.0833189,20.9973 C76.3383189,21.5078 75.4914771,21.7623 74.543797,21.7623 C73.7757195,21.7623 73.1962751,21.5413 72.8054636,21.0988 C72.4141505,20.6563 72.2184939,20.0153 72.2184939,19.1748 C72.2184939,18.7553 72.3233458,18.0048 72.5345545,16.9248 C72.7297094,15.9798 72.8280394,15.3273 72.8280394,14.9673 C72.8280394,14.7273 72.7452616,14.6073 72.5797061,14.6073 C72.3840495,14.6073 72.1091269,14.8588 71.7554401,15.3613 C71.4017532,15.8638 71.0405411,16.5278 70.6718037,17.3523 C70.3030663,18.1773 70.0060697,19.0478 69.7803121,19.9623 C69.6142549,20.6678 69.4226118,21.1433 69.2043795,21.3913 C68.9861471,21.6388 68.6434973,21.7623 68.1774333,21.7623 C67.6055141,21.7623 67.2026623,21.4623 66.9693795,20.8623" id="n" fill="#FFFFFF"></path>
                    <g id="d" transform="translate(77.259259, 0.387450)">
                        <mask id="mask-2" fill="white">
                            <use xlink:href="#path-1"></use>
                        </mask>
                        <g id="Clip-16"></g>
                        <path d="M9.44088081,5.64745 C9.05709293,7.86745 8.79772256,10.28245 8.66226801,12.89245 C10.3328741,9.29245 11.1681771,6.36745 11.1681771,4.11745 C11.1681771,3.54745 11.1195138,3.10495 11.0211838,2.78995 C10.9233556,2.47495 10.806965,2.31745 10.6715104,2.31745 C10.2345441,2.31745 9.82517037,3.42795 9.44088081,5.64745 M5.03910976,18.76495 C5.31704242,18.53995 5.67424108,18.10495 6.11120741,17.45995 C5.96070236,16.36545 5.88544983,15.23245 5.88544983,14.06245 C5.88544983,13.59745 5.89297508,13.23795 5.90802559,12.98245 C5.08024781,13.22245 4.39544983,13.76995 3.85363165,14.62495 C3.31181347,15.47995 3.04090438,16.42495 3.04090438,17.45995 C3.04090438,18.55495 3.41666532,19.10245 4.16969226,19.10245 C4.47070236,19.10245 4.76017374,18.98995 5.03910976,18.76495 M9.45241953,19.88995 C9.51262155,20.08495 9.54272256,20.28745 9.54272256,20.49745 C9.54272256,21.17245 9.12883367,21.50995 8.30105589,21.50995 C7.83449024,21.50995 7.47729158,21.38245 7.22895825,21.12745 C6.98062492,20.87245 6.75085387,20.39245 6.5401468,19.68745 L6.51757104,19.59745 C5.94515017,20.30295 5.42992121,20.77495 4.97138249,21.01495 C4.5118404,21.25495 3.98105926,21.37495 3.37954074,21.37495 C2.46145993,21.37495 1.70492121,21.03395 1.11092795,20.35145 C0.515931313,19.66845 0.21893468,18.77995 0.21893468,17.68495 C0.21893468,16.48495 0.474793266,15.37545 0.986510438,14.35495 C1.49822761,13.33495 2.19757441,12.49895 3.08605589,11.84595 C3.97403569,11.19345 4.96736902,10.79995 6.06605589,10.66495 C6.35201549,7.82995 6.89784714,5.36295 7.70254747,3.26245 C8.50774949,1.16245 9.57984714,0.11245 10.9198438,0.11245 C11.5665138,0.11245 12.1053219,0.40495 12.5337596,0.98995 C12.9632007,1.57495 13.1774195,2.45995 13.1774195,3.64495 C13.1774195,5.29495 12.7710559,7.22245 11.9583286,9.42745 C11.1456013,11.63245 10.0694902,13.90495 8.72999529,16.24495 C8.89555084,17.47495 9.13635892,18.68995 9.45241953,19.88995" id="Fill-15" fill="#FFFFFF" mask="url(#mask-2)"></path>
                    </g>
                </g>
                <g id="Guys" transform="translate(95.000000, 2.000000)" fill="#61C092">
                    <path d="M10.3814791,26.37745 C10.8480448,25.49195 11.2845094,24.06745 11.6908731,22.10245 C10.5470347,23.07745 9.72327037,23.95895 9.21907845,24.74595 C8.71438485,25.53395 8.46253973,26.22745 8.46253973,26.82745 C8.46253973,27.41245 8.6732468,27.70495 9.09466094,27.70495 C9.48597407,27.70495 9.91441178,27.26245 10.3814791,26.37745 M19.4007451,14.95895 C19.5131222,15.14645 19.5698125,15.38245 19.5698125,15.66745 C19.5698125,16.01295 19.5171357,16.28295 19.4117822,16.47745 C19.3064286,16.67245 19.1408731,16.84545 18.9151155,16.99495 C18.026634,17.57995 16.6123882,18.53995 14.6708731,19.87495 C14.0839034,22.97995 13.3238529,25.42445 12.3907215,27.20995 C11.4575902,28.99495 10.2761256,29.88745 8.84632761,29.88745 C8.07875185,29.88745 7.45415589,29.65095 6.97253973,29.17895 C6.49042189,28.70595 6.25011549,28.08745 6.25011549,27.32245 C6.25011549,26.61695 6.40814579,25.90495 6.7242064,25.18495 C7.040267,24.46495 7.63074848,23.63245 8.49615253,22.68745 C9.36205825,21.74245 10.5846609,20.66245 12.164964,19.44745 L12.2326912,19.01995 C11.0431997,19.51495 9.87678552,19.76245 8.73344882,19.76245 C7.04729057,19.76245 5.56481582,19.43595 4.28602458,18.78345 C3.00673165,18.13095 2.01289663,17.20495 1.30602458,16.00495 C0.598650842,14.80495 0.244963973,13.40995 0.244963973,11.81995 C0.244963973,9.59995 0.666378114,7.63845 1.5092064,5.93595 C2.35203468,4.23395 3.51443535,2.91395 4.99741178,1.97595 C6.47938485,1.03895 8.13845219,0.56995 9.97511549,0.56995 C11.7360246,0.56995 13.0569572,0.97895 13.9374118,1.79595 C14.8178663,2.61395 15.2578428,3.69745 15.2578428,5.04745 C15.2578428,5.93245 15.095799,6.64145 14.7727148,7.17345 C14.4486273,7.70645 13.9860751,7.97245 13.3840549,7.97245 C12.9776912,7.97245 12.6500919,7.87495 12.4017586,7.67995 C12.1534253,7.48495 12.0295094,7.21495 12.0295094,6.86995 C12.0295094,6.72045 12.0596104,6.46495 12.1198125,6.10495 C12.2106172,5.68495 12.255267,5.35495 12.255267,5.11495 C12.255267,4.48495 12.0636239,3.99745 11.679836,3.65245 C11.2955465,3.30745 10.6523882,3.13495 9.74935791,3.13495 C8.65067104,3.13495 7.63074848,3.44995 6.6905936,4.07995 C5.74993704,4.70995 4.99339832,5.65145 4.42147912,6.90345 C3.84905825,8.15645 3.56360034,9.65995 3.56360034,11.41495 C3.56360034,13.21495 4.05675522,14.60645 5.04206162,15.58845 C6.0278697,16.57145 7.45415589,17.06245 9.32041852,17.06245 C10.3589034,17.06245 11.4425397,16.82995 12.5713276,16.36495 L12.8873882,13.61995 L10.5846609,13.61995 C10.1627451,13.61995 9.83966094,13.51845 9.61390337,13.31595 C9.38864747,13.11395 9.275267,12.77995 9.275267,12.31495 C9.275267,11.89495 9.38864747,11.56495 9.61390337,11.32495 C9.83966094,11.08545 10.140671,10.96495 10.5174354,10.96495 L14.7386003,10.96495 C15.0697114,10.96495 15.344634,11.07395 15.5623646,11.29145 C15.780597,11.50895 15.8673882,11.81995 15.8222367,12.22495 C15.7770852,12.70495 15.6265801,13.79245 15.3707215,15.48745 L15.1223882,17.19745 C16.3264286,16.29745 17.4251155,15.51745 18.4189505,14.85745 C18.6136037,14.73745 18.7871862,14.67745 18.9376912,14.67745 C19.1328461,14.67745 19.2878663,14.77145 19.4007451,14.95895" id="G"></path>
                    <path d="M19.7841316,18.8286 C19.3556939,18.2061 19.1409734,17.4301 19.1409734,16.5001 C19.1409734,15.3751 19.2157242,14.3436 19.366731,13.4061 C19.5167343,12.4691 19.7650677,11.4751 20.1112293,10.4246 C20.2617343,9.9746 20.4729431,9.6526 20.7438522,9.4576 C21.0142596,9.2626 21.4437007,9.1646 22.0306704,9.1646 C22.3612798,9.1646 22.5910508,9.2176 22.7194818,9.3226 C22.8464077,9.4276 22.9106232,9.5851 22.9106232,9.7951 C22.9106232,9.9151 22.8278455,10.3201 22.6622899,11.0101 C22.5117848,11.5651 22.3913808,12.0676 22.3015795,12.5171 C22.0000677,14.0921 21.8495626,15.1426 21.8495626,15.6676 C21.8495626,15.9826 21.8871889,16.2036 21.9629431,16.3311 C22.0376939,16.4586 22.158098,16.5226 22.3236535,16.5226 C22.5499128,16.5226 22.8318589,16.2976 23.1704953,15.8476 C23.5091316,15.3976 23.8708455,14.7151 24.2541316,13.7996 C24.6379195,12.8851 25.0106704,11.7601 25.3718825,10.4246 C25.4917848,9.9746 25.6764044,9.6526 25.9247377,9.4576 C26.173071,9.2626 26.5458219,9.1646 27.0424886,9.1646 C27.3881485,9.1646 27.6294582,9.2061 27.7644111,9.2886 C27.9003673,9.3711 27.9675929,9.5251 27.9675929,9.7501 C27.9675929,10.1251 27.7799633,11.1526 27.4037007,12.8326 C26.9822865,14.7526 26.7715795,15.9376 26.7715795,16.3876 C26.7715795,16.6726 26.8312798,16.8936 26.9521855,17.0511 C27.0720879,17.2086 27.2306199,17.2871 27.4257747,17.2871 C27.7267848,17.2871 28.0844852,17.1041 28.4983741,16.7361 C28.912263,16.3686 29.4656199,15.7726 30.1579431,14.9476 C30.3385492,14.7376 30.5412293,14.6321 30.7674886,14.6321 C30.9626434,14.6321 31.117162,14.7226 31.2300407,14.9021 C31.3429195,15.0826 31.3991081,15.3296 31.3991081,15.6451 C31.3991081,16.2451 31.2561283,16.7101 30.9706704,17.0396 C30.3234987,17.8351 29.627162,18.4876 28.882162,18.9971 C28.137162,19.5076 27.2908219,19.7626 26.3421384,19.7626 C25.6202158,19.7626 25.0894347,19.4851 24.7507983,18.9301 C24.4126636,18.3751 24.2430946,17.5951 24.2430946,16.5896 C23.9867343,17.6101 23.6029465,18.3936 23.091731,18.9411 C22.5795121,19.4886 22.0306704,19.7626 21.4437007,19.7626 C20.7664279,19.7626 20.213071,19.4511 19.7841316,18.8286" id="y"></path>
                    <path d="M33.453502,26.3999 C33.9200677,25.5299 34.3866333,24.0824 34.853199,22.0574 C33.6938084,23.0324 32.8554953,23.9209 32.3357512,24.7234 C31.8165088,25.5259 31.5576401,26.2274 31.5576401,26.8274 C31.5576401,27.0824 31.6058017,27.2924 31.7041316,27.4574 C31.8014582,27.6224 31.963502,27.7049 32.1892596,27.7049 C32.5650205,27.7049 32.9869364,27.2699 33.453502,26.3999 M42.5399936,14.9589 C42.6533741,15.1464 42.7095626,15.3824 42.7095626,15.6674 C42.7095626,16.0129 42.6568859,16.2829 42.5515323,16.4774 C42.4461788,16.6724 42.2811249,16.8454 42.0553673,16.9949 L37.7203202,19.8974 C37.148401,23.0024 36.3998892,25.4434 35.4737815,27.2214 C34.5486771,28.9984 33.3707242,29.8874 31.9409263,29.8874 C31.1733505,29.8874 30.5487545,29.6509 30.0671384,29.1789 C29.5855222,28.7059 29.3452158,28.0874 29.3452158,27.3224 C29.3452158,26.6174 29.5062562,25.8974 29.8298421,25.1624 C30.1539296,24.4274 30.7559498,23.5834 31.6364044,22.6309 C32.5168589,21.6784 33.7620374,20.5874 35.3724414,19.3574 L35.4401687,18.8399 C35.5455222,18.2854 35.6659263,17.4899 35.8018825,16.4549 C35.5003707,17.5349 35.0789566,18.3564 34.5371384,18.9189 C33.9953202,19.4814 33.4228993,19.7624 32.8213808,19.7624 C32.1446098,19.7624 31.5912529,19.4514 31.1623135,18.8284 C30.7333741,18.2064 30.5186535,17.4304 30.5186535,16.4999 C30.5186535,15.3749 30.5939061,14.3439 30.7449128,13.4064 C30.8944145,12.4689 31.1432495,11.4749 31.4894111,10.4249 C31.6399162,9.9749 31.8511249,9.6524 32.122034,9.4574 C32.3924414,9.2629 32.8213808,9.1649 33.4083505,9.1649 C33.7389599,9.1649 33.968731,9.2174 34.097162,9.3224 C34.2245896,9.4274 34.2888051,9.5849 34.2888051,9.7949 C34.2888051,9.9149 34.2060273,10.3199 34.0404717,11.0099 C33.8899667,11.5649 33.7695626,12.0674 33.6792596,12.5174 C33.5588556,13.1324 33.453502,13.7214 33.363199,14.2839 C33.2733976,14.8464 33.2277444,15.3074 33.2277444,15.6674 C33.2277444,16.2374 33.3857747,16.5224 33.7018354,16.5224 C33.9275929,16.5224 34.2100407,16.2974 34.5486771,15.8474 C34.8868118,15.3974 35.2485256,14.7149 35.6323135,13.7999 C36.0155997,12.8854 36.3888522,11.7604 36.7495626,10.4249 C36.8699667,9.9749 37.0545862,9.6524 37.3029195,9.4574 C37.5512529,9.2629 37.923502,9.1649 38.4201687,9.1649 C38.7663303,9.1649 39.0071384,9.2099 39.1425929,9.2999 C39.2780475,9.3899 39.3457747,9.5399 39.3457747,9.7499 C39.3457747,10.1249 39.1501182,11.4149 38.7588051,13.6199 L38.1718354,17.2424 C39.3307242,16.3724 40.4595121,15.5774 41.558199,14.8574 C41.7538556,14.7374 41.9269364,14.6774 42.0774414,14.6774 C42.273098,14.6774 42.4276165,14.7714 42.5399936,14.9589" id="y"></path>
                    <path d="M44.6845401,19.7173 C44.2706512,19.3573 44.0639576,18.9523 44.0639576,18.5023 C44.0639576,18.1128 44.2069374,17.7748 44.492897,17.4898 C44.7783549,17.2053 45.199769,17.0623 45.7571394,17.0623 C45.9522943,17.0623 46.1820653,17.0813 46.4459508,17.1188 C46.708833,17.1563 46.908503,17.1828 47.0439576,17.1973 C47.0289071,16.8078 46.9421158,16.4403 46.7845872,16.0948 C46.6260552,15.7498 46.4268869,15.4163 46.1860788,15.0938 C45.9452707,14.7713 45.7195131,14.4898 45.5088061,14.2498 C45.0422404,15.1353 44.5791865,15.8698 44.1201461,16.4548 C43.6611057,17.0398 43.1609273,17.5948 42.6191091,18.1198 C42.3482,18.3898 42.0617387,18.5248 41.7612303,18.5248 C41.5199205,18.5248 41.3247657,18.4388 41.1742606,18.2663 C41.0237556,18.0938 40.948503,17.8803 40.948503,17.6248 C40.948503,17.3248 41.0538566,17.0478 41.2645636,16.7923 L41.5580485,16.4323 C42.3853246,15.4128 43.0104222,14.5728 43.4318364,13.9123 C43.6876949,13.4778 43.9882034,12.8963 44.3348667,12.1688 C44.6805266,11.4413 45.0196646,10.6873 45.3507758,9.9073 C45.6362337,9.2478 46.2312303,8.9173 47.1342606,8.9173 C47.5556747,8.9173 47.8491596,8.9553 48.0147152,9.0298 C48.1802707,9.1053 48.2630485,9.2253 48.2630485,9.3898 C48.2630485,9.4798 48.2324458,9.6228 48.1727455,9.8173 C48.1125434,10.0123 48.029264,10.2073 47.9244121,10.4023 C47.653503,10.9423 47.5175468,11.4003 47.5175468,11.7748 C47.5175468,11.9998 47.5973145,12.2473 47.7548431,12.5173 C47.9133751,12.7873 48.1576949,13.1248 48.4888061,13.5298 C48.9704222,14.1598 49.3356478,14.6963 49.5839811,15.1388 C49.8323145,15.5813 49.9562303,16.0648 49.9562303,16.5898 C49.9562303,16.7398 49.9411798,16.9498 49.9110788,17.2198 C50.6485535,16.9353 51.5139576,16.1773 52.5072909,14.9473 C52.687897,14.7378 52.8905771,14.6323 53.1168364,14.6323 C53.3119912,14.6323 53.4665098,14.7223 53.5793886,14.9023 C53.6922673,15.0823 53.7484559,15.3298 53.7484559,15.6448 C53.7484559,16.2153 53.6054761,16.6798 53.3200182,17.0398 C52.5669912,17.9703 51.8485805,18.6038 51.1637825,18.9413 C50.4789845,19.2788 49.6321428,19.4623 48.6242606,19.4923 C48.0217387,20.0023 47.3073414,20.2573 46.4795636,20.2573 C45.6969374,20.2573 45.098429,20.0773 44.6845401,19.7173" id="s"></path>
                </g>
            </g>
        </g>
    </g>
</svg>