<?xml version="1.0" encoding="UTF-8" standalone="no"?>
<svg width="149px" height="32px" viewBox="0 0 149 32" version="1.1" xmlns="http://www.w3.org/2000/svg" xmlns:xlink="http://www.w3.org/1999/xlink">
    <!-- Generator: Sketch 42 (36781) - http://www.bohemiancoding.com/sketch -->
    <title>Frontend Guys Logo - Dark Background</title>
    <desc>Created with Sketch.</desc>
    <defs>
        <polygon id="path-1" points="0.21893468 0.1125 13.1774195 0.1125 13.1774195 21.50995 0.21893468 21.50995"></polygon>
    </defs>
    <g id="Symbols" stroke="none" stroke-width="1" fill="none" fill-rule="evenodd">
        <g id="Logo" transform="translate(-5.000000, -6.000000)">
            <g id="Page-1" transform="translate(5.000000, 6.000000)">
                <path d="M20.9163892,3.3799 C21.0744195,3.5749 21.1536855,3.8299 21.1536855,4.1449 C21.1536855,5.1799 20.5963152,5.6604 19.4830795,5.5849 L18.6924263,5.5174 C17.8044465,5.4424 16.9204801,5.3824 16.0400256,5.3374 C15.159571,5.2924 14.2374768,5.2699 13.2747461,5.2699 L12.2583354,5.2699 C12.078231,7.4899 11.889598,9.5154 11.6939414,11.3449 L15.5769717,11.2774 C16.1338404,11.2774 16.5065912,11.3754 16.6947226,11.5699 C16.8828539,11.7654 16.9766687,12.0274 16.9766687,12.3574 C16.9766687,12.8674 16.8266653,13.2684 16.5251535,13.5609 C16.2241434,13.8539 15.795204,13.9999 15.238837,13.9999 L11.3778808,13.9999 L11.2429279,14.9674 C10.9268673,17.4424 10.2526047,19.2049 9.2221468,20.2549 C8.19118721,21.3049 6.77292795,21.8299 4.96686734,21.8299 C3.94293131,21.8299 3.00277643,21.6089 2.14489764,21.1664 C1.28651717,20.7239 0.65439596,20.1874 0.248534007,19.5574 C0.0824767677,19.3024 0.000200673401,18.9949 0.000200673401,18.6349 C0.000200673401,18.2749 0.0859885522,17.9599 0.259571044,17.6899 C0.432651852,17.4199 0.646870707,17.2849 0.902729293,17.2849 C1.08383704,17.2849 1.25992795,17.3449 1.43351044,17.4649 C1.60659125,17.5854 1.82833535,17.8174 2.09924444,18.1624 C2.82217037,19.1074 3.71717374,19.5799 4.78626128,19.5799 C5.64414007,19.5799 6.36255084,19.2314 6.94249697,18.5339 C7.52143973,17.8364 7.89368889,16.7374 8.05924444,15.2374 L8.19520067,13.9999 L7.11106263,13.9999 C6.76490101,13.9999 6.46790438,13.9024 6.21957104,13.7074 C5.97123771,13.5129 5.84732189,13.2349 5.84732189,12.8749 C5.84732189,12.4104 5.96722424,12.0539 6.20853401,11.8064 C6.4488404,11.5584 6.80252727,11.4349 7.26959461,11.4349 C7.69050707,11.4349 8.10489764,11.4274 8.5107596,11.4124 C8.69186734,9.7624 8.88702222,7.7599 9.09772929,5.4049 C7.47227475,5.5549 6.32843636,5.8174 5.66671582,6.1924 C5.00399192,6.5674 4.67288081,7.1224 4.67288081,7.8574 C4.67288081,8.3674 4.82338586,8.8554 5.12439596,9.3199 C5.21469899,9.4549 5.26035219,9.5899 5.26035219,9.7249 C5.26035219,9.9949 5.10934545,10.2314 4.80883704,10.4334 C4.50732525,10.6364 4.16868889,10.7374 3.79242626,10.7374 C3.38656431,10.7374 3.03990101,10.6174 2.7544431,10.3774 C2.57333535,10.2274 2.40075623,9.9199 2.23520067,9.4549 C2.06914343,8.9904 1.98686734,8.4729 1.98686734,7.9024 C1.98686734,6.0429 2.9460862,4.6924 4.86502559,3.8524 C6.78396498,3.0124 9.58687071,2.5924 13.2747461,2.5924 C15.8328303,2.5924 18.0904061,2.7274 20.0474734,2.9974 C20.4683859,3.0574 20.7583589,3.1849 20.9163892,3.3799" id="Fill-1" fill="#FFFFFF"></path>
                <path d="M17.5750768,20.8623 C17.3417939,20.2628 17.2254034,19.3023 17.2254034,17.9823 C17.2254034,16.0328 17.503336,14.1798 18.0607064,12.4248 C18.1956593,11.9898 18.4179051,11.6713 18.7264404,11.4688 C19.0349758,11.2663 19.4674269,11.1648 20.0247973,11.1648 C20.3253057,11.1648 20.5360128,11.2028 20.6569185,11.2773 C20.7773226,11.3523 20.8375246,11.4953 20.8375246,11.7048 C20.8375246,11.9453 20.7241441,12.4853 20.4988882,13.3248 C20.3478815,13.9248 20.2279791,14.4498 20.1371744,14.8998 C20.0473731,15.3498 19.9716189,15.9048 19.9119185,16.5648 C20.4080835,15.2748 20.9649522,14.2248 21.5820229,13.4148 C22.1995953,12.6048 22.8051273,12.0278 23.3996222,11.6823 C23.9941172,11.3373 24.5399488,11.1648 25.0366155,11.1648 C26.0143966,11.1648 26.5040397,11.6528 26.5040397,12.6273 C26.5040397,12.8223 26.4363125,13.2948 26.3008579,14.0448 C26.1799522,14.6448 26.1202519,15.0198 26.1202519,15.1698 C26.1202519,15.6953 26.3078815,15.9573 26.6846458,15.9573 C27.1055582,15.9573 27.6473764,15.6278 28.3095987,14.9673 C28.5052552,14.7728 28.708437,14.6748 28.9191441,14.6748 C29.1148007,14.6748 29.2698209,14.7613 29.382198,14.9338 C29.4950768,15.1063 29.551767,15.3353 29.551767,15.6198 C29.551767,16.1748 29.4007603,16.6098 29.1002519,16.9248 C28.6788377,17.3603 28.1856828,17.7313 27.6212889,18.0388 C27.0568949,18.3463 26.4588882,18.4998 25.8262653,18.4998 C25.0285886,18.4998 24.4230566,18.2973 24.0091677,17.8923 C23.5952788,17.4873 23.3885852,16.9398 23.3885852,16.2498 C23.3885852,16.0248 23.4111609,15.7998 23.4563125,15.5748 C23.4859118,15.2748 23.501464,15.0723 23.501464,14.9673 C23.501464,14.7273 23.4181845,14.6073 23.252629,14.6073 C23.0273731,14.6073 22.7298747,14.8588 22.3611374,15.3613 C21.9924,15.8638 21.6276761,16.5278 21.2659623,17.3523 C20.9052519,18.1773 20.611767,19.0478 20.3860094,19.9623 C20.2199522,20.6678 20.0283091,21.1433 19.8100768,21.3913 C19.5918444,21.6388 19.2491946,21.7623 18.7831306,21.7623 C18.2112114,21.7623 17.8083596,21.4623 17.5750768,20.8623" id="Fill-3" fill="#FFFFFF"></path>
                <path d="M32.8132616,18.7925 C33.1664468,18.4025 33.4037431,17.84 33.5241471,17.105 C33.0575815,16.79 32.6998811,16.3775 32.4520495,15.8675 C32.2037162,15.3575 32.0792987,14.8175 32.0792987,14.2475 C32.0792987,14.0075 32.1018744,13.7675 32.1470259,13.5275 L32.0341471,13.5275 C31.4321269,13.5275 30.9314468,13.8165 30.5331101,14.3935 C30.13377,14.971 29.9351034,15.785 29.9351034,16.835 C29.9351034,17.66 30.0961438,18.29 30.4197296,18.725 C30.7438172,19.16 31.1235916,19.3775 31.5600562,19.3775 C32.0416724,19.3775 32.4595747,19.1825 32.8132616,18.7925 M39.4164199,15.035 C39.5217734,15.23 39.5749519,15.4775 39.5749519,15.7775 C39.5749519,16.4975 39.3562178,16.925 38.9197532,17.06 C38.0167229,17.375 37.0238912,17.555 35.9397532,17.6 C35.6537936,18.86 35.0893997,19.869 34.2465714,20.626 C33.4037431,21.384 32.448036,21.7625 31.3799519,21.7625 C30.4769215,21.7625 29.7053323,21.545 29.0656859,21.11 C28.4255377,20.675 27.9404098,20.0975 27.6092987,19.3775 C27.2781875,18.6575 27.1131337,17.8775 27.1131337,17.0375 C27.1131337,15.8975 27.3308643,14.8815 27.767329,13.989 C28.2037936,13.0965 28.8063155,12.399 29.5733896,11.8965 C30.3409653,11.394 31.1913189,11.1425 32.1244502,11.1425 C33.2682886,11.1425 34.1903828,11.536 34.8902313,12.3235 C35.5900798,13.111 35.9999552,14.0825 36.1208609,15.2375 C36.827733,15.1925 37.6705613,15.0425 38.6493458,14.7875 C38.7692481,14.7575 38.8746017,14.7425 38.9654064,14.7425 C39.1605613,14.7425 39.3110663,14.84 39.4164199,15.035" id="Fill-5" fill="#FFFFFF"></path>
                <path d="M38.0280108,20.8623 C37.7947279,20.2628 37.6783374,19.3023 37.6783374,17.9823 C37.6783374,16.0328 37.95627,14.1798 38.5136404,12.4248 C38.6485933,11.9898 38.8708391,11.6713 39.1793744,11.4688 C39.4879098,11.2663 39.9203609,11.1648 40.4777313,11.1648 C40.7782397,11.1648 40.9889468,11.2028 41.1098525,11.2773 C41.2302566,11.3523 41.2904586,11.4953 41.2904586,11.7048 C41.2904586,11.9453 41.1770781,12.4853 40.9518222,13.3248 C40.8008155,13.9248 40.6809131,14.4498 40.5901084,14.8998 C40.5003071,15.3498 40.4245529,15.9048 40.3648525,16.5648 C40.8610175,15.2748 41.4178862,14.2248 42.0349569,13.4148 C42.6525293,12.6048 43.2580613,12.0278 43.8525562,11.6823 C44.4470512,11.3373 44.9928828,11.1648 45.4895495,11.1648 C46.4673306,11.1648 46.9569737,11.6528 46.9569737,12.6273 C46.9569737,13.2123 46.7909165,14.2698 46.4603071,15.7998 C46.1738458,17.1048 46.0313677,17.9673 46.0313677,18.3873 C46.0313677,18.9873 46.2496,19.2873 46.6860646,19.2873 C46.9865731,19.2873 47.3437717,19.1038 47.758664,18.7363 C48.1720512,18.3688 48.7249064,17.7723 49.4177313,16.9473 C49.5978357,16.7373 49.8015192,16.6323 50.0272768,16.6323 C50.2229333,16.6323 50.3769502,16.7223 50.489829,16.9023 C50.6027077,17.0823 50.659398,17.3298 50.659398,17.6448 C50.659398,18.2453 50.5164182,18.7103 50.2299569,19.0398 C49.5827852,19.8353 48.8874519,20.4873 48.1419502,20.9973 C47.3969502,21.5078 46.5501084,21.7623 45.6024283,21.7623 C44.8343508,21.7623 44.2549064,21.5413 43.8640949,21.0988 C43.4727818,20.6563 43.2771253,20.0153 43.2771253,19.1748 C43.2771253,18.7553 43.3819771,18.0048 43.5931859,16.9248 C43.7883407,15.9798 43.8866707,15.3273 43.8866707,14.9673 C43.8866707,14.7273 43.8038929,14.6073 43.6383374,14.6073 C43.4426808,14.6073 43.1677582,14.8588 42.8140714,15.3613 C42.4603845,15.8638 42.0991724,16.5278 41.730435,17.3523 C41.3616976,18.1773 41.064701,19.0478 40.8389434,19.9623 C40.6728862,20.6678 40.4812431,21.1433 40.2630108,21.3913 C40.0447785,21.6388 39.7021286,21.7623 39.2360646,21.7623 C38.6641455,21.7623 38.2612936,21.4623 38.0280108,20.8623" id="Fill-7" fill="#FFFFFF"></path>
                <path d="M54.1921027,5.01125 C53.9131667,5.57375 53.6502845,6.35375 53.4019512,7.35125 C53.1536178,8.34875 52.9469242,9.45475 52.780867,10.66975 C53.6688468,9.90475 54.3345808,9.04625 54.7790724,8.09375 C55.2230623,7.14125 55.4448064,6.27475 55.4448064,5.49475 C55.4448064,4.61025 55.2792508,4.16775 54.9486414,4.16775 C54.7228838,4.16775 54.470537,4.44875 54.1921027,5.01125 M59.3619512,16.90225 C59.47483,17.08275 59.5315202,17.32975 59.5315202,17.64525 C59.5315202,18.24525 59.387537,18.71025 59.1020791,19.03975 C58.4549074,19.83525 57.7475337,20.48775 56.9804596,20.99725 C56.2123822,21.50775 55.3319276,21.76225 54.3385943,21.76225 C51.2682912,21.76225 49.7331397,19.61025 49.7331397,15.30475 C49.7331397,14.64525 49.7557155,13.97725 49.800867,13.30275 L48.9204125,13.30275 C48.469399,13.30275 48.1638737,13.22025 48.0063451,13.05475 C47.8478131,12.89025 47.7690488,12.62725 47.7690488,12.26725 C47.7690488,11.42775 48.1076852,11.00725 48.7854596,11.00725 L50.0717761,11.00725 C50.3276347,9.35725 50.7189478,7.85025 51.2457155,6.48475 C51.7724832,5.12025 52.4086178,4.03225 53.1536178,3.22225 C53.8986178,2.41225 54.7003081,2.00725 55.5581869,2.00725 C56.1898064,2.00725 56.6869747,2.28525 57.0476852,2.83975 C57.4088973,3.39525 57.5895034,4.09275 57.5895034,4.93225 C57.5895034,7.25775 56.6112205,9.28275 54.6546549,11.00725 L57.1831397,11.00725 C57.4234461,11.00725 57.5970286,11.06025 57.7023822,11.16475 C57.8077357,11.27025 57.8604125,11.46525 57.8604125,11.75025 C57.8604125,12.78475 57.0100589,13.30275 55.3098535,13.30275 L52.5551094,13.30275 C52.5250084,14.05275 52.5099579,14.63775 52.5099579,15.05725 C52.5099579,16.61775 52.6945774,17.71225 53.0633148,18.34225 C53.4315505,18.97225 54.0145067,19.28725 54.8126852,19.28725 C55.4598569,19.28725 56.0317761,19.09275 56.5284428,18.70225 C57.0251094,18.31275 57.6120791,17.72775 58.2893519,16.94775 C58.4699579,16.73775 58.6736414,16.63225 58.899399,16.63225 C59.0940522,16.63225 59.2490724,16.72225 59.3619512,16.90225" id="Fill-9" fill="#FFFFFF"></path>
                <path d="M60.6708936,14.3374 C60.2871057,14.9824 60.0954626,15.7629 60.0954626,16.6774 L60.0954626,16.7224 C60.9834424,16.5124 61.6832909,16.1974 62.1950081,15.7774 C62.7067253,15.3579 62.9620822,14.8699 62.9620822,14.3149 C62.9620822,14.0299 62.8833178,13.8014 62.7257892,13.6289 C62.5672572,13.4564 62.3530384,13.3699 62.0821293,13.3699 C61.5247589,13.3699 61.0551832,13.6924 60.6708936,14.3374 M68.2337724,16.9024 C68.3471529,17.0824 68.4033414,17.3299 68.4033414,17.6449 C68.4033414,18.2449 68.2598599,18.7104 67.974402,19.0399 C67.4170316,19.7149 66.6308936,20.3374 65.6149845,20.9074 C64.5990754,21.4774 63.5119273,21.7624 62.3530384,21.7624 C60.7727354,21.7624 59.5461192,21.3349 58.6731899,20.4799 C57.7997589,19.6249 57.363796,18.4549 57.363796,16.9699 C57.363796,15.9349 57.5820283,14.9714 58.0184929,14.0784 C58.4549576,13.1864 59.0604896,12.4774 59.8355906,11.9524 C60.6106916,11.4274 61.4871327,11.1649 62.4659172,11.1649 C63.3383448,11.1649 64.0381933,11.4234 64.5654626,11.9414 C65.0922303,12.4589 65.3556141,13.1599 65.3556141,14.0449 C65.3556141,15.0799 64.983365,15.9689 64.2378633,16.7114 C63.4928633,17.4534 62.2321327,18.0424 60.4566747,18.4774 C60.8324357,19.1674 61.5478364,19.5124 62.6013717,19.5124 C63.2786444,19.5124 64.049732,19.2759 64.915136,18.8039 C65.7810418,18.3309 66.5295535,17.7124 67.1616747,16.9474 C67.3422808,16.7374 67.5454626,16.6324 67.7712202,16.6324 C67.9663751,16.6324 68.1213953,16.7224 68.2337724,16.9024" id="Fill-11" fill="#FFFFFF"></path>
                <path d="M66.9693795,20.8623 C66.7360966,20.2628 66.6197061,19.3023 66.6197061,17.9823 C66.6197061,16.0328 66.8976387,14.1798 67.4550091,12.4248 C67.589962,11.9898 67.8122077,11.6713 68.1207431,11.4688 C68.4292785,11.2663 68.8617296,11.1648 69.4191,11.1648 C69.7196084,11.1648 69.9303155,11.2028 70.0512212,11.2773 C70.1716253,11.3523 70.2318273,11.4953 70.2318273,11.7048 C70.2318273,11.9453 70.1184468,12.4853 69.8931909,13.3248 C69.7421842,13.9248 69.6222818,14.4498 69.5314771,14.8998 C69.4416758,15.3498 69.3659215,15.9048 69.3062212,16.5648 C69.8023862,15.2748 70.3592549,14.2248 70.9763256,13.4148 C71.593898,12.6048 72.19943,12.0278 72.7939249,11.6823 C73.3884199,11.3373 73.9342515,11.1648 74.4309182,11.1648 C75.4086993,11.1648 75.8983424,11.6528 75.8983424,12.6273 C75.8983424,13.2123 75.7322852,14.2698 75.4016758,15.7998 C75.1152145,17.1048 74.9727364,17.9673 74.9727364,18.3873 C74.9727364,18.9873 75.1909687,19.2873 75.6274333,19.2873 C75.9279418,19.2873 76.2851404,19.1038 76.7000327,18.7363 C77.1134199,18.3688 77.6662751,17.7723 78.3591,16.9473 C78.5392044,16.7373 78.7428879,16.6323 78.9686455,16.6323 C79.164302,16.6323 79.3183189,16.7223 79.4311976,16.9023 C79.5440764,17.0823 79.6007667,17.3298 79.6007667,17.6448 C79.6007667,18.2453 79.4577869,18.7103 79.1713256,19.0398 C78.5241539,19.8353 77.8288205,20.4873 77.0833189,20.9973 C76.3383189,21.5078 75.4914771,21.7623 74.543797,21.7623 C73.7757195,21.7623 73.1962751,21.5413 72.8054636,21.0988 C72.4141505,20.6563 72.2184939,20.0153 72.2184939,19.1748 C72.2184939,18.7553 72.3233458,18.0048 72.5345545,16.9248 C72.7297094,15.9798 72.8280394,15.3273 72.8280394,14.9673 C72.8280394,14.7273 72.7452616,14.6073 72.5797061,14.6073 C72.3840495,14.6073 72.1091269,14.8588 71.7554401,15.3613 C71.4017532,15.8638 71.0405411,16.5278 70.6718037,17.3523 C70.3030663,18.1773 70.0060697,19.0478 69.7803121,19.9623 C69.6142549,20.6678 69.4226118,21.1433 69.2043795,21.3913 C68.9861471,21.6388 68.6434973,21.7623 68.1774333,21.7623 C67.6055141,21.7623 67.2026623,21.4623 66.9693795,20.8623" id="Fill-13" fill="#FFFFFF"></path>
                <g id="Group-17" transform="translate(77.259259, 0.387450)">
                    <mask id="mask-2" fill="white">
                        <use xlink:href="#path-1"></use>
                    </mask>
                    <g id="Clip-16"></g>
                    <path d="M9.44088081,5.64745 C9.05709293,7.86745 8.79772256,10.28245 8.66226801,12.89245 C10.3328741,9.29245 11.1681771,6.36745 11.1681771,4.11745 C11.1681771,3.54745 11.1195138,3.10495 11.0211838,2.78995 C10.9233556,2.47495 10.806965,2.31745 10.6715104,2.31745 C10.2345441,2.31745 9.82517037,3.42795 9.44088081,5.64745 M5.03910976,18.76495 C5.31704242,18.53995 5.67424108,18.10495 6.11120741,17.45995 C5.96070236,16.36545 5.88544983,15.23245 5.88544983,14.06245 C5.88544983,13.59745 5.89297508,13.23795 5.90802559,12.98245 C5.08024781,13.22245 4.39544983,13.76995 3.85363165,14.62495 C3.31181347,15.47995 3.04090438,16.42495 3.04090438,17.45995 C3.04090438,18.55495 3.41666532,19.10245 4.16969226,19.10245 C4.47070236,19.10245 4.76017374,18.98995 5.03910976,18.76495 M9.45241953,19.88995 C9.51262155,20.08495 9.54272256,20.28745 9.54272256,20.49745 C9.54272256,21.17245 9.12883367,21.50995 8.30105589,21.50995 C7.83449024,21.50995 7.47729158,21.38245 7.22895825,21.12745 C6.98062492,20.87245 6.75085387,20.39245 6.5401468,19.68745 L6.51757104,19.59745 C5.94515017,20.30295 5.42992121,20.77495 4.97138249,21.01495 C4.5118404,21.25495 3.98105926,21.37495 3.37954074,21.37495 C2.46145993,21.37495 1.70492121,21.03395 1.11092795,20.35145 C0.515931313,19.66845 0.21893468,18.77995 0.21893468,17.68495 C0.21893468,16.48495 0.474793266,15.37545 0.986510438,14.35495 C1.49822761,13.33495 2.19757441,12.49895 3.08605589,11.84595 C3.97403569,11.19345 4.96736902,10.79995 6.06605589,10.66495 C6.35201549,7.82995 6.89784714,5.36295 7.70254747,3.26245 C8.50774949,1.16245 9.57984714,0.11245 10.9198438,0.11245 C11.5665138,0.11245 12.1053219,0.40495 12.5337596,0.98995 C12.9632007,1.57495 13.1774195,2.45995 13.1774195,3.64495 C13.1774195,5.29495 12.7710559,7.22245 11.9583286,9.42745 C11.1456013,11.63245 10.0694902,13.90495 8.72999529,16.24495 C8.89555084,17.47495 9.13635892,18.68995 9.45241953,19.88995" id="Fill-15" fill="#FFFFFF" mask="url(#mask-2)"></path>
                </g>
                <path d="M105.381479,28.37745 C105.848045,27.49195 106.284509,26.06745 106.690873,24.10245 C105.547035,25.07745 104.72327,25.95895 104.219078,26.74595 C103.714385,27.53395 103.46254,28.22745 103.46254,28.82745 C103.46254,29.41245 103.673247,29.70495 104.094661,29.70495 C104.485974,29.70495 104.914412,29.26245 105.381479,28.37745 M114.400745,16.95895 C114.513122,17.14645 114.569812,17.38245 114.569812,17.66745 C114.569812,18.01295 114.517136,18.28295 114.411782,18.47745 C114.306429,18.67245 114.140873,18.84545 113.915115,18.99495 C113.026634,19.57995 111.612388,20.53995 109.670873,21.87495 C109.083903,24.97995 108.323853,27.42445 107.390722,29.20995 C106.45759,30.99495 105.276126,31.88745 103.846328,31.88745 C103.078752,31.88745 102.454156,31.65095 101.97254,31.17895 C101.490422,30.70595 101.250115,30.08745 101.250115,29.32245 C101.250115,28.61695 101.408146,27.90495 101.724206,27.18495 C102.040267,26.46495 102.630748,25.63245 103.496153,24.68745 C104.362058,23.74245 105.584661,22.66245 107.164964,21.44745 L107.232691,21.01995 C106.0432,21.51495 104.876786,21.76245 103.733449,21.76245 C102.047291,21.76245 100.564816,21.43595 99.2860246,20.78345 C98.0067316,20.13095 97.0128966,19.20495 96.3060246,18.00495 C95.5986508,16.80495 95.244964,15.40995 95.244964,13.81995 C95.244964,11.59995 95.6663781,9.63845 96.5092064,7.93595 C97.3520347,6.23395 98.5144354,4.91395 99.9974118,3.97595 C101.479385,3.03895 103.138452,2.56995 104.975115,2.56995 C106.736025,2.56995 108.056957,2.97895 108.937412,3.79595 C109.817866,4.61395 110.257843,5.69745 110.257843,7.04745 C110.257843,7.93245 110.095799,8.64145 109.772715,9.17345 C109.448627,9.70645 108.986075,9.97245 108.384055,9.97245 C107.977691,9.97245 107.650092,9.87495 107.401759,9.67995 C107.153425,9.48495 107.029509,9.21495 107.029509,8.86995 C107.029509,8.72045 107.05961,8.46495 107.119812,8.10495 C107.210617,7.68495 107.255267,7.35495 107.255267,7.11495 C107.255267,6.48495 107.063624,5.99745 106.679836,5.65245 C106.295546,5.30745 105.652388,5.13495 104.749358,5.13495 C103.650671,5.13495 102.630748,5.44995 101.690594,6.07995 C100.749937,6.70995 99.9933983,7.65145 99.4214791,8.90345 C98.8490582,10.15645 98.5636003,11.65995 98.5636003,13.41495 C98.5636003,15.21495 99.0567552,16.60645 100.042062,17.58845 C101.02787,18.57145 102.454156,19.06245 104.320419,19.06245 C105.358903,19.06245 106.44254,18.82995 107.571328,18.36495 L107.887388,15.61995 L105.584661,15.61995 C105.162745,15.61995 104.839661,15.51845 104.613903,15.31595 C104.388647,15.11395 104.275267,14.77995 104.275267,14.31495 C104.275267,13.89495 104.388647,13.56495 104.613903,13.32495 C104.839661,13.08545 105.140671,12.96495 105.517435,12.96495 L109.7386,12.96495 C110.069711,12.96495 110.344634,13.07395 110.562365,13.29145 C110.780597,13.50895 110.867388,13.81995 110.822237,14.22495 C110.777085,14.70495 110.62658,15.79245 110.370722,17.48745 L110.122388,19.19745 C111.326429,18.29745 112.425115,17.51745 113.418951,16.85745 C113.613604,16.73745 113.787186,16.67745 113.937691,16.67745 C114.132846,16.67745 114.287866,16.77145 114.400745,16.95895" id="Fill-18" fill="#61C092"></path>
                <path d="M114.784132,20.8286 C114.355694,20.2061 114.140973,19.4301 114.140973,18.5001 C114.140973,17.3751 114.215724,16.3436 114.366731,15.4061 C114.516734,14.4691 114.765068,13.4751 115.111229,12.4246 C115.261734,11.9746 115.472943,11.6526 115.743852,11.4576 C116.01426,11.2626 116.443701,11.1646 117.03067,11.1646 C117.36128,11.1646 117.591051,11.2176 117.719482,11.3226 C117.846408,11.4276 117.910623,11.5851 117.910623,11.7951 C117.910623,11.9151 117.827845,12.3201 117.66229,13.0101 C117.511785,13.5651 117.391381,14.0676 117.301579,14.5171 C117.000068,16.0921 116.849563,17.1426 116.849563,17.6676 C116.849563,17.9826 116.887189,18.2036 116.962943,18.3311 C117.037694,18.4586 117.158098,18.5226 117.323654,18.5226 C117.549913,18.5226 117.831859,18.2976 118.170495,17.8476 C118.509132,17.3976 118.870845,16.7151 119.254132,15.7996 C119.63792,14.8851 120.01067,13.7601 120.371882,12.4246 C120.491785,11.9746 120.676404,11.6526 120.924738,11.4576 C121.173071,11.2626 121.545822,11.1646 122.042489,11.1646 C122.388148,11.1646 122.629458,11.2061 122.764411,11.2886 C122.900367,11.3711 122.967593,11.5251 122.967593,11.7501 C122.967593,12.1251 122.779963,13.1526 122.403701,14.8326 C121.982287,16.7526 121.771579,17.9376 121.771579,18.3876 C121.771579,18.6726 121.83128,18.8936 121.952186,19.0511 C122.072088,19.2086 122.23062,19.2871 122.425775,19.2871 C122.726785,19.2871 123.084485,19.1041 123.498374,18.7361 C123.912263,18.3686 124.46562,17.7726 125.157943,16.9476 C125.338549,16.7376 125.541229,16.6321 125.767489,16.6321 C125.962643,16.6321 126.117162,16.7226 126.230041,16.9021 C126.34292,17.0826 126.399108,17.3296 126.399108,17.6451 C126.399108,18.2451 126.256128,18.7101 125.97067,19.0396 C125.323499,19.8351 124.627162,20.4876 123.882162,20.9971 C123.137162,21.5076 122.290822,21.7626 121.342138,21.7626 C120.620216,21.7626 120.089435,21.4851 119.750798,20.9301 C119.412664,20.3751 119.243095,19.5951 119.243095,18.5896 C118.986734,19.6101 118.602946,20.3936 118.091731,20.9411 C117.579512,21.4886 117.03067,21.7626 116.443701,21.7626 C115.766428,21.7626 115.213071,21.4511 114.784132,20.8286" id="Fill-20" fill="#61C092"></path>
                <path d="M128.453502,28.3999 C128.920068,27.5299 129.386633,26.0824 129.853199,24.0574 C128.693808,25.0324 127.855495,25.9209 127.335751,26.7234 C126.816509,27.5259 126.55764,28.2274 126.55764,28.8274 C126.55764,29.0824 126.605802,29.2924 126.704132,29.4574 C126.801458,29.6224 126.963502,29.7049 127.18926,29.7049 C127.565021,29.7049 127.986936,29.2699 128.453502,28.3999 M137.539994,16.9589 C137.653374,17.1464 137.709563,17.3824 137.709563,17.6674 C137.709563,18.0129 137.656886,18.2829 137.551532,18.4774 C137.446179,18.6724 137.281125,18.8454 137.055367,18.9949 L132.72032,21.8974 C132.148401,25.0024 131.399889,27.4434 130.473781,29.2214 C129.548677,30.9984 128.370724,31.8874 126.940926,31.8874 C126.173351,31.8874 125.548755,31.6509 125.067138,31.1789 C124.585522,30.7059 124.345216,30.0874 124.345216,29.3224 C124.345216,28.6174 124.506256,27.8974 124.829842,27.1624 C125.15393,26.4274 125.75595,25.5834 126.636404,24.6309 C127.516859,23.6784 128.762037,22.5874 130.372441,21.3574 L130.440169,20.8399 C130.545522,20.2854 130.665926,19.4899 130.801882,18.4549 C130.500371,19.5349 130.078957,20.3564 129.537138,20.9189 C128.99532,21.4814 128.422899,21.7624 127.821381,21.7624 C127.14461,21.7624 126.591253,21.4514 126.162313,20.8284 C125.733374,20.2064 125.518654,19.4304 125.518654,18.4999 C125.518654,17.3749 125.593906,16.3439 125.744913,15.4064 C125.894414,14.4689 126.143249,13.4749 126.489411,12.4249 C126.639916,11.9749 126.851125,11.6524 127.122034,11.4574 C127.392441,11.2629 127.821381,11.1649 128.408351,11.1649 C128.73896,11.1649 128.968731,11.2174 129.097162,11.3224 C129.22459,11.4274 129.288805,11.5849 129.288805,11.7949 C129.288805,11.9149 129.206027,12.3199 129.040472,13.0099 C128.889967,13.5649 128.769563,14.0674 128.67926,14.5174 C128.558856,15.1324 128.453502,15.7214 128.363199,16.2839 C128.273398,16.8464 128.227744,17.3074 128.227744,17.6674 C128.227744,18.2374 128.385775,18.5224 128.701835,18.5224 C128.927593,18.5224 129.210041,18.2974 129.548677,17.8474 C129.886812,17.3974 130.248526,16.7149 130.632313,15.7999 C131.0156,14.8854 131.388852,13.7604 131.749563,12.4249 C131.869967,11.9749 132.054586,11.6524 132.30292,11.4574 C132.551253,11.2629 132.923502,11.1649 133.420169,11.1649 C133.76633,11.1649 134.007138,11.2099 134.142593,11.2999 C134.278047,11.3899 134.345775,11.5399 134.345775,11.7499 C134.345775,12.1249 134.150118,13.4149 133.758805,15.6199 L133.171835,19.2424 C134.330724,18.3724 135.459512,17.5774 136.558199,16.8574 C136.753856,16.7374 136.926936,16.6774 137.077441,16.6774 C137.273098,16.6774 137.427616,16.7714 137.539994,16.9589" id="Fill-22" fill="#61C092"></path>
                <path d="M139.68454,21.7173 C139.270651,21.3573 139.063958,20.9523 139.063958,20.5023 C139.063958,20.1128 139.206937,19.7748 139.492897,19.4898 C139.778355,19.2053 140.199769,19.0623 140.757139,19.0623 C140.952294,19.0623 141.182065,19.0813 141.445951,19.1188 C141.708833,19.1563 141.908503,19.1828 142.043958,19.1973 C142.028907,18.8078 141.942116,18.4403 141.784587,18.0948 C141.626055,17.7498 141.426887,17.4163 141.186079,17.0938 C140.945271,16.7713 140.719513,16.4898 140.508806,16.2498 C140.04224,17.1353 139.579187,17.8698 139.120146,18.4548 C138.661106,19.0398 138.160927,19.5948 137.619109,20.1198 C137.3482,20.3898 137.061739,20.5248 136.76123,20.5248 C136.519921,20.5248 136.324766,20.4388 136.174261,20.2663 C136.023756,20.0938 135.948503,19.8803 135.948503,19.6248 C135.948503,19.3248 136.053857,19.0478 136.264564,18.7923 L136.558048,18.4323 C137.385325,17.4128 138.010422,16.5728 138.431836,15.9123 C138.687695,15.4778 138.988203,14.8963 139.334867,14.1688 C139.680527,13.4413 140.019665,12.6873 140.350776,11.9073 C140.636234,11.2478 141.23123,10.9173 142.134261,10.9173 C142.555675,10.9173 142.84916,10.9553 143.014715,11.0298 C143.180271,11.1053 143.263048,11.2253 143.263048,11.3898 C143.263048,11.4798 143.232446,11.6228 143.172745,11.8173 C143.112543,12.0123 143.029264,12.2073 142.924412,12.4023 C142.653503,12.9423 142.517547,13.4003 142.517547,13.7748 C142.517547,13.9998 142.597314,14.2473 142.754843,14.5173 C142.913375,14.7873 143.157695,15.1248 143.488806,15.5298 C143.970422,16.1598 144.335648,16.6963 144.583981,17.1388 C144.832314,17.5813 144.95623,18.0648 144.95623,18.5898 C144.95623,18.7398 144.94118,18.9498 144.911079,19.2198 C145.648554,18.9353 146.513958,18.1773 147.507291,16.9473 C147.687897,16.7378 147.890577,16.6323 148.116836,16.6323 C148.311991,16.6323 148.46651,16.7223 148.579389,16.9023 C148.692267,17.0823 148.748456,17.3298 148.748456,17.6448 C148.748456,18.2153 148.605476,18.6798 148.320018,19.0398 C147.566991,19.9703 146.84858,20.6038 146.163782,20.9413 C145.478985,21.2788 144.632143,21.4623 143.624261,21.4923 C143.021739,22.0023 142.307341,22.2573 141.479564,22.2573 C140.696937,22.2573 140.098429,22.0773 139.68454,21.7173" id="Fill-24" fill="#61C092"></path>
            </g>
        </g>
    </g>
</svg>