<?xml version="1.0" encoding="UTF-8" standalone="no"?>
<svg width="269px" height="61px" viewBox="0 0 269 61" version="1.1" xmlns="http://www.w3.org/2000/svg" xmlns:xlink="http://www.w3.org/1999/xlink">
    <!-- Generator: Sketch 42 (36781) - http://www.bohemiancoding.com/sketch -->
    <title>Frontend Guy</title>
    <desc>Created with Sketch.</desc>
    <defs>
        <polygon id="path-1" points="0.426763978 0.21796875 25.6864192 0.21796875 25.6864192 41.6755281 0.426763978 41.6755281"></polygon>
    </defs>
    <g id="Website" stroke="none" stroke-width="1" fill="none" fill-rule="evenodd">
        <g id="General-Design" transform="translate(-497.000000, -882.000000)">
            <g id="#frontend-guy-game" transform="translate(0.000000, 728.000000)">
                <g id="Title" transform="translate(384.000000, 151.000000)">
                    <g id="Page-1" transform="translate(113.000000, 2.000000)">
                        <path d="M40.7718022,6.54855625 C41.0798468,6.92636875 41.234358,7.42043125 41.234358,8.03074375 C41.234358,10.0360563 40.1478897,10.967025 37.9778868,10.8207438 L36.436686,10.6899625 C34.7057688,10.54465 32.982675,10.4284 31.2664267,10.3412125 C29.5501783,10.254025 27.7527627,10.2104313 25.8761356,10.2104313 L23.8948711,10.2104313 C23.5437981,14.5116813 23.1761004,18.4360875 22.7947119,21.9807438 L30.3638072,21.8499625 C31.4492976,21.8499625 32.1758916,22.0398375 32.5426114,22.4166813 C32.9093311,22.7954625 33.092202,23.3030875 33.092202,23.9424625 C33.092202,24.9305875 32.7998041,25.707525 32.2120746,26.2742438 C31.6253231,26.8419313 30.7892021,27.1248063 29.7046896,27.1248063 L22.1786227,27.1248063 L21.9155624,28.9993375 C21.2994733,33.79465 19.9851498,37.2094938 17.9765035,39.2438688 C15.9668794,41.2782438 13.2023016,42.2954313 9.68179213,42.2954313 C7.68585886,42.2954313 5.85323812,41.8672438 4.18099613,41.0099 C2.50777623,40.1525563 1.27559792,39.1130875 0.484461216,37.8924625 C0.160769931,37.3984 0.000391167716,36.8026188 0.000391167716,36.1051188 C0.000391167716,35.4076188 0.167615366,34.7973063 0.50597544,34.2741813 C0.843357595,33.7510563 1.26092913,33.4894938 1.75966797,33.4894938 C2.11269683,33.4894938 2.4559465,33.6057438 2.79430658,33.8382438 C3.13168873,34.0717125 3.56392906,34.5212125 4.09200548,35.18965 C5.50118717,37.0205875 7.24579518,37.9360563 9.32974119,37.9360563 C11.0019832,37.9360563 12.4023636,37.2608375 13.5328383,35.9094313 C14.6613572,34.558025 15.3869733,32.4287125 15.7096866,29.5224625 L15.9747028,27.1248063 L13.8614192,27.1248063 C13.1866549,27.1248063 12.6077266,26.9359 12.1236566,26.5580875 C11.6395866,26.1812438 11.3980405,25.6426188 11.3980405,24.9451188 C11.3980405,24.04515 11.6317632,23.3544313 12.1021424,22.8749 C12.5705657,22.3944 13.2599988,22.1551188 14.1704417,22.1551188 C14.990916,22.1551188 15.7986773,22.1405875 16.589814,22.111525 C16.9428429,18.91465 17.3232535,15.0348063 17.7339796,10.4719938 C14.5655211,10.7626188 12.3358651,11.2712125 11.0459895,11.997775 C9.75415816,12.7243375 9.10873143,13.79965 9.10873143,15.2237125 C9.10873143,16.2118375 9.40210722,17.1573375 9.98885879,18.0573063 C10.1648843,18.3188688 10.2538749,18.5804313 10.2538749,18.8419938 C10.2538749,19.3651188 9.95952121,19.8233375 9.37374756,20.2147125 C8.78601806,20.608025 8.12592254,20.8037125 7.39248308,20.8037125 C6.60134637,20.8037125 5.92560414,20.5712125 5.36916807,20.1062125 C5.0161392,19.8155875 4.67973497,19.2198063 4.3570216,18.3188688 C4.03333032,17.4189 3.87295155,16.4162438 3.87295155,15.3109 C3.87295155,11.7081188 5.74273324,9.091525 9.48327452,7.464025 C13.2238158,5.836525 18.6874509,5.022775 25.8761356,5.022775 C30.862546,5.022775 35.2631828,5.2843375 39.078046,5.8074625 C39.8985203,5.9237125 40.4637576,6.17074375 40.7718022,6.54855625" id="Fill-1" fill="#444444"></path>
                        <path d="M34.2586641,40.4207063 C33.8039317,39.259175 33.5770544,37.3982063 33.5770544,34.8407063 C33.5770544,31.06355 34.1188217,27.4733625 35.20529,24.07305 C35.4683503,23.2302375 35.9015685,22.6131438 36.5029889,22.2208 C37.1044093,21.8284563 37.9473757,21.6318 39.033844,21.6318 C39.6196177,21.6318 40.0303438,21.705425 40.2660223,21.8497687 C40.500723,21.9950812 40.6180733,22.2721438 40.6180733,22.67805 C40.6180733,23.1440188 40.3970635,24.1902688 39.9579778,25.8168 C39.663624,26.9793 39.4299013,27.9964875 39.2528979,28.8683625 C39.0778504,29.7402375 38.9301846,30.81555 38.8138122,32.0943 C39.7809744,29.594925 40.8664648,27.56055 42.0693055,25.991175 C43.2731241,24.4218 44.4534727,23.3038625 45.6123071,22.6344563 C46.7711414,21.9660187 47.8351176,21.6318 48.8032577,21.6318 C50.7092224,21.6318 51.6636716,22.5773 51.6636716,24.4653938 C51.6636716,24.8432062 51.5316525,25.758675 51.2676143,27.2118 C51.0319358,28.3743 50.9155634,29.1008625 50.9155634,29.3914875 C50.9155634,30.4096438 51.2813052,30.9172688 52.0157226,30.9172688 C52.8361969,30.9172688 53.8923497,30.2788625 55.1832032,28.9991438 C55.5645917,28.6223 55.960649,28.432425 56.3713751,28.432425 C56.7527636,28.432425 57.0549407,28.6000188 57.2739946,28.9342375 C57.4940265,29.2684563 57.6045313,29.7121438 57.6045313,30.2633625 C57.6045313,31.338675 57.3101776,32.1814875 56.724404,32.7918 C55.9029518,33.6355813 54.9416571,34.3543938 53.8414979,34.950175 C52.7413387,35.5459563 51.5756589,35.8433625 50.3425027,35.8433625 C48.787611,35.8433625 47.6072624,35.4510188 46.800479,34.6663313 C45.9936956,33.8816438 45.5907929,32.8208625 45.5907929,31.4839875 C45.5907929,31.04805 45.6347992,30.6121125 45.722812,30.176175 C45.7805092,29.594925 45.8108247,29.2025813 45.8108247,28.9991438 C45.8108247,28.5341437 45.6484901,28.3016438 45.3257767,28.3016438 C44.886691,28.3016438 44.3067848,28.788925 43.5880142,29.7625188 C42.8692435,30.7361125 42.1582962,32.0226125 41.4532163,33.6200813 C40.7500924,35.2185188 40.1780096,36.9051125 39.7379459,38.6769563 C39.4142546,40.0438625 39.0406895,40.9651438 38.6152946,41.4456438 C38.1898997,41.925175 37.5219808,42.1644563 36.6134938,42.1644563 C35.4986658,42.1644563 34.7133966,41.5832063 34.2586641,40.4207063" id="Fill-3" fill="#444444"></path>
                        <path d="M63.9620824,36.4104688 C64.6505376,35.6548438 65.1130934,34.565 65.3477941,33.1409375 C64.4383291,32.530625 63.7410727,31.7314063 63.2579805,30.7432813 C62.7739105,29.7551563 62.5313865,28.7089063 62.5313865,27.6045313 C62.5313865,27.1395313 62.5753929,26.6745313 62.6634056,26.2095313 L62.4433738,26.2095313 C61.2698706,26.2095313 60.2939072,26.7694688 59.5174393,27.8874063 C58.7390155,29.0063125 58.3517595,30.5834375 58.3517595,32.6178125 C58.3517595,34.21625 58.6656716,35.436875 59.2964295,36.2796875 C59.9281654,37.1225 60.6684503,37.5439063 61.51924,37.5439063 C62.4580426,37.5439063 63.2726493,37.1660938 63.9620824,36.4104688 M76.8334561,29.1303125 C77.0388192,29.508125 77.1424786,29.9876563 77.1424786,30.5689063 C77.1424786,31.9639063 76.7161058,32.7921875 75.865316,33.05375 C74.1050613,33.6640625 72.169759,34.0128125 70.0564754,34.1 C69.4990614,36.54125 68.3989022,38.4961875 66.7559978,39.962875 C65.1130934,41.4315 63.2501572,42.1648438 61.168167,42.1648438 C59.4079123,42.1648438 57.9038724,41.7434375 56.6570253,40.900625 C55.4092003,40.0578125 54.4635524,38.9389063 53.8181256,37.5439063 C53.1726989,36.1489063 52.8509635,34.6376563 52.8509635,33.0101563 C52.8509635,30.8014063 53.2753804,28.8329063 54.1261702,27.1036875 C54.97696,25.3744688 56.1514411,24.0230625 57.6466797,23.0494688 C59.1428962,22.075875 60.8004694,21.5885938 62.6193992,21.5885938 C64.8490552,21.5885938 66.6464709,22.351 68.0106683,23.8767813 C69.3748657,25.4025625 70.1738258,27.2848438 70.4095043,29.5226563 C71.7873926,29.4354688 73.430297,29.1448438 75.3382175,28.6507813 C75.5719402,28.5926563 75.7773033,28.5635938 75.9543067,28.5635938 C76.3347173,28.5635938 76.6280931,28.7525 76.8334561,29.1303125" id="Fill-5" fill="#444444"></path>
                        <path d="M74.1270645,40.4207063 C73.672332,39.259175 73.4454547,37.3982063 73.4454547,34.8407063 C73.4454547,31.06355 73.987222,27.4733625 75.0736904,24.07305 C75.3367506,23.2302375 75.7699689,22.6131438 76.3713892,22.2208 C76.9728096,21.8284563 77.815776,21.6318 78.9022444,21.6318 C79.488018,21.6318 79.8987441,21.705425 80.1344227,21.8497687 C80.3691233,21.9950812 80.4864736,22.2721438 80.4864736,22.67805 C80.4864736,23.1440188 80.2654639,24.1902688 79.8263781,25.8168 C79.5320244,26.9793 79.2983017,27.9964875 79.1212983,28.8683625 C78.9462507,29.7402375 78.7985849,30.81555 78.6822125,32.0943 C79.6493747,29.594925 80.7348651,27.56055 81.9377058,25.991175 C83.1415245,24.4218 84.3218731,23.3038625 85.4807074,22.6344563 C86.6395418,21.9660187 87.703518,21.6318 88.6716581,21.6318 C90.5776228,21.6318 91.532072,22.5773 91.532072,24.4653938 C91.532072,25.5988312 91.2083807,27.6477375 90.5639319,30.6121125 C90.00554,33.14055 89.7278109,34.8116438 89.7278109,35.6253938 C89.7278109,36.7878938 90.1532058,37.3691438 91.0039956,37.3691438 C91.5897692,37.3691438 92.2860478,37.0136125 93.094787,36.3015813 C93.9005925,35.58955 94.9782596,34.4338313 96.3287661,32.8353938 C96.6798391,32.4285188 97.0768744,32.2250813 97.516938,32.2250813 C97.8983266,32.2250813 98.1985478,32.3994563 98.4185796,32.7482063 C98.6386115,33.0969563 98.7491164,33.5764875 98.7491164,34.1868 C98.7491164,35.3502688 98.4704094,36.2512063 97.9120174,36.8896125 C96.6505016,38.4308938 95.2951054,39.6941438 93.8419174,40.6822688 C92.3897072,41.6713625 90.7389795,42.1644563 88.8916899,42.1644563 C87.3944955,42.1644563 86.2649987,41.7362688 85.5031996,40.878925 C84.7404225,40.0215813 84.359034,38.7796438 84.359034,37.151175 C84.359034,36.3383938 84.5634191,34.8843 84.9751232,32.7918 C85.3555338,30.9608625 85.5472059,29.6966438 85.5472059,28.9991438 C85.5472059,28.5341437 85.3858493,28.3016438 85.0631359,28.3016438 C84.6817474,28.3016438 84.1458476,28.788925 83.4564145,29.7625188 C82.7669814,30.7361125 82.0628795,32.0226125 81.3441088,33.6200813 C80.6253382,35.2185188 80.0464099,36.9051125 79.6063463,38.6769563 C79.282655,40.0438625 78.9090898,40.9651438 78.4836949,41.4456438 C78.0583,41.925175 77.3903811,42.1644563 76.4818941,42.1644563 C75.3670661,42.1644563 74.581797,41.5832063 74.1270645,40.4207063" id="Fill-7" fill="#444444"></path>
                        <path d="M105.635331,9.70929687 C105.091607,10.7991406 104.579178,12.3103906 104.095108,14.2430469 C103.611038,16.1757031 103.208135,18.3185781 102.884444,20.6726406 C104.615361,19.1904531 105.91306,17.5271094 106.779496,15.6816406 C107.644955,13.8361719 108.077195,12.1573281 108.077195,10.6460781 C108.077195,8.93235937 107.754482,8.07501562 107.110033,8.07501562 C106.669969,8.07501562 106.178076,8.61945312 105.635331,9.70929687 M115.712789,32.7481094 C115.932821,33.0978281 116.043326,33.5763906 116.043326,34.1876719 C116.043326,35.3501719 115.762663,36.2511094 115.206227,36.8895156 C113.944711,38.4307969 112.565845,39.6950156 111.070606,40.6821719 C109.573412,41.6712656 107.857163,42.1643594 105.920883,42.1643594 C99.936017,42.1643594 96.943584,37.9948594 96.943584,29.6529531 C96.943584,28.3751719 96.9875903,27.0809219 97.0756031,25.7740781 L95.3593547,25.7740781 C94.4802053,25.7740781 93.8846524,25.6142344 93.5775858,25.2935781 C93.2685633,24.9748594 93.1150299,24.4652969 93.1150299,23.7677969 C93.1150299,22.1412656 93.7751255,21.3265469 95.0962944,21.3265469 L97.6036795,21.3265469 C98.1024183,18.1296719 98.8651954,15.2098594 99.8920106,12.5642031 C100.918826,9.92048437 102.158828,7.81248437 103.611038,6.24310937 C105.063248,4.67373437 106.625963,3.88904687 108.298205,3.88904687 C109.529405,3.88904687 110.498523,4.42767187 111.201647,5.50201562 C111.905749,6.57829687 112.2578,7.92970312 112.2578,9.55623437 C112.2578,14.0618906 110.350857,17.9853281 106.536972,21.3265469 L111.465685,21.3265469 C111.934109,21.3265469 112.272469,21.4292344 112.477832,21.6317031 C112.683195,21.8361094 112.785876,22.2139219 112.785876,22.7661094 C112.785876,24.7704531 111.128303,25.7740781 107.814135,25.7740781 L102.44438,25.7740781 C102.385705,27.2272031 102.356367,28.3606406 102.356367,29.1734219 C102.356367,32.1968906 102.716242,34.3174844 103.435012,35.5381094 C104.152805,36.7587344 105.289147,37.3690469 106.845017,37.3690469 C108.106533,37.3690469 109.221361,36.9922031 110.189501,36.2356094 C111.157641,35.4809531 112.301806,34.3475156 113.621997,32.8362656 C113.974048,32.4293906 114.371084,32.2249844 114.811147,32.2249844 C115.19058,32.2249844 115.492757,32.3993594 115.712789,32.7481094" id="Fill-9" fill="#444444"></path>
                        <path d="M118.264278,27.7787125 C117.51617,29.0284 117.142605,30.5406187 117.142605,32.3124625 L117.142605,32.39965 C118.873522,31.992775 120.237719,31.3824625 121.235197,30.5687125 C122.232675,29.7559312 122.730436,28.8104312 122.730436,27.7351187 C122.730436,27.1829312 122.576902,26.7402125 122.269836,26.4059937 C121.960813,26.071775 121.543241,25.9041812 121.015165,25.9041812 C119.928697,25.9041812 119.013364,26.529025 118.264278,27.7787125 M133.006411,32.7484 C133.227421,33.09715 133.336948,33.5766812 133.336948,34.1869937 C133.336948,35.3494937 133.057263,36.2514 132.500827,36.8898062 C131.414359,38.1976187 129.881959,39.4037125 127.901673,40.5080875 C125.921386,41.6124625 123.802235,42.16465 121.543241,42.16465 C118.462796,42.16465 116.071783,41.3363687 114.370203,39.6798062 C112.667646,38.0232437 111.817834,35.7563687 111.817834,32.8791812 C111.817834,30.8738687 112.243229,29.0070875 113.094019,27.2769 C113.944809,25.54865 115.125157,24.1749625 116.636042,23.157775 C118.146928,22.1405875 119.855353,21.6319937 121.763273,21.6319937 C123.463875,21.6319937 124.828072,22.1328375 125.855866,23.1364625 C126.882681,24.1391187 127.396088,25.4973062 127.396088,27.2119937 C127.396088,29.2173062 126.670472,30.9397437 125.217284,32.3783375 C123.765074,33.8159625 121.307563,34.95715 117.846707,35.7999625 C118.579168,37.1368375 119.973681,37.805275 122.027312,37.805275 C123.347503,37.805275 124.850565,37.3470562 126.537475,36.4325562 C128.225364,35.5161187 129.68442,34.317775 130.916598,32.8355875 C131.268649,32.4287125 131.664706,32.225275 132.10477,32.225275 C132.48518,32.225275 132.787357,32.39965 133.006411,32.7484" id="Fill-11" fill="#444444"></path>
                        <path d="M130.541761,40.4207063 C130.087029,39.259175 129.860152,37.3982063 129.860152,34.8407063 C129.860152,31.06355 130.401919,27.4733625 131.488387,24.07305 C131.751448,23.2302375 132.184666,22.6131438 132.786086,22.2208 C133.387507,21.8284563 134.230473,21.6318 135.316941,21.6318 C135.902715,21.6318 136.313441,21.705425 136.54912,21.8497687 C136.78382,21.9950812 136.901171,22.2721438 136.901171,22.67805 C136.901171,23.1440188 136.680161,24.1902688 136.241075,25.8168 C135.946721,26.9793 135.712999,27.9964875 135.535995,28.8683625 C135.360948,29.7402375 135.213282,30.81555 135.096909,32.0943 C136.064072,29.594925 137.149562,27.56055 138.352403,25.991175 C139.556221,24.4218 140.73657,23.3038625 141.895404,22.6344563 C143.054239,21.9660187 144.118215,21.6318 145.086355,21.6318 C146.99232,21.6318 147.946769,22.5773 147.946769,24.4653938 C147.946769,25.5988312 147.623078,27.6477375 146.978629,30.6121125 C146.420237,33.14055 146.142508,34.8116438 146.142508,35.6253938 C146.142508,36.7878938 146.567903,37.3691438 147.418693,37.3691438 C148.004466,37.3691438 148.700745,37.0136125 149.509484,36.3015813 C150.315289,35.58955 151.392957,34.4338313 152.743463,32.8353938 C153.094536,32.4285188 153.491571,32.2250813 153.931635,32.2250813 C154.313024,32.2250813 154.613245,32.3994563 154.833277,32.7482063 C155.053308,33.0969563 155.163813,33.5764875 155.163813,34.1868 C155.163813,35.3502688 154.885106,36.2512063 154.326714,36.8896125 C153.065198,38.4308938 151.709802,39.6941438 150.256614,40.6822688 C148.804404,41.6713625 147.153676,42.1644563 145.306387,42.1644563 C143.809192,42.1644563 142.679696,41.7362688 141.917897,40.878925 C141.155119,40.0215813 140.773731,38.7796438 140.773731,37.151175 C140.773731,36.3383938 140.978116,34.8843 141.38982,32.7918 C141.770231,30.9608625 141.961903,29.6966438 141.961903,28.9991438 C141.961903,28.5341437 141.800546,28.3016438 141.477833,28.3016438 C141.096444,28.3016438 140.560545,28.788925 139.871111,29.7625188 C139.181678,30.7361125 138.477576,32.0226125 137.758806,33.6200813 C137.040035,35.2185188 136.461107,36.9051125 136.021043,38.6769563 C135.697352,40.0438625 135.323787,40.9651438 134.898392,41.4456438 C134.472997,41.925175 133.805078,42.1644563 132.896591,42.1644563 C131.781763,42.1644563 130.996494,41.5832063 130.541761,40.4207063" id="Fill-13" fill="#444444"></path>
                        <g id="Group-17" transform="translate(150.599571, 0.750684)">
                            <mask id="mask-2" fill="white">
                                <use xlink:href="#path-1"></use>
                            </mask>
                            <g id="Clip-16"></g>
                            <path d="M18.4028764,10.9419344 C17.6547681,15.2431844 17.1491838,19.9222469 16.8851456,24.9791219 C20.1416169,18.0041219 21.7698525,12.3369344 21.7698525,7.97755937 C21.7698525,6.87318437 21.6749943,6.01584062 21.4833221,5.40552812 C21.2926279,4.79521562 21.0657506,4.49005937 20.8017124,4.49005937 C19.9499447,4.49005937 19.1519625,6.64165312 18.4028764,10.9419344 M9.82261251,36.3570906 C10.3643798,35.9211531 11.0606583,35.0783406 11.912426,33.8286531 C11.6190502,31.7080594 11.4723624,29.5128719 11.4723624,27.2459969 C11.4723624,26.3450594 11.4870311,25.6485281 11.5163687,25.1534969 C9.90280189,25.6184969 8.56794206,26.6792781 7.51178923,28.3358406 C6.4556364,29.9924031 5.92755998,31.8233406 5.92755998,33.8286531 C5.92755998,35.9502156 6.66002153,37.0109969 8.12787838,37.0109969 C8.71462996,37.0109969 9.27888939,36.7930281 9.82261251,36.3570906 M18.4253685,38.5367781 C18.5427188,38.9145906 18.601394,39.3069344 18.601394,39.7138094 C18.601394,41.0216219 17.7946106,41.6755281 16.1810437,41.6755281 C15.2715788,41.6755281 14.5753003,41.4284969 14.0912302,40.9344344 C13.6071602,40.4403719 13.1592731,39.5103719 12.748547,38.1444344 L12.7045407,37.9700594 C11.5887347,39.3369656 10.5844116,40.2514656 9.69059341,40.7164656 C8.79481934,41.1814656 7.76018073,41.4139656 6.5876555,41.4139656 C4.7980632,41.4139656 3.32336091,40.7532781 2.16550447,39.4309344 C1.0056922,38.1076219 0.426763978,36.3861531 0.426763978,34.2645906 C0.426763978,31.9395906 0.925502816,29.7899344 1.92298049,27.8127156 C2.92045817,25.8364656 4.28367766,24.2167156 6.01557272,22.9515281 C7.74648986,21.6873094 9.68277005,20.9249031 11.8244133,20.6633406 C12.3818273,15.1705281 13.4458035,10.3907156 15.014386,6.32099687 C16.5839465,2.25224687 18.67376,0.217871875 21.2857824,0.217871875 C22.5463204,0.217871875 23.5966057,0.784590625 24.4317488,1.91802812 C25.2688477,3.05146562 25.6864192,4.76615312 25.6864192,7.06209062 C25.6864192,10.2589656 24.8943046,13.9934969 23.3100754,18.2656844 C21.7258461,22.5378719 19.6282092,26.9408406 17.0171647,31.4745906 C17.3398781,33.8577156 17.8092793,36.2117781 18.4253685,38.5367781" id="Fill-15" fill="#444444" mask="url(#mask-2)"></path>
                        </g>
                        <path d="M205.417521,54.9813094 C206.326986,53.2656531 207.177776,50.5056844 207.96989,46.6984969 C205.740234,48.5875594 204.134491,50.2954656 203.151682,51.8202781 C202.167895,53.3470281 201.67698,54.6906844 201.67698,55.8531844 C201.67698,56.9866219 202.087706,57.5533406 202.909158,57.5533406 C203.671935,57.5533406 204.507078,56.6959969 205.417521,54.9813094 M222.998554,32.8579656 C223.217608,33.2212469 223.328113,33.6784969 223.328113,34.2306844 C223.328113,34.9000906 223.225431,35.4232156 223.020068,35.8000594 C222.814705,36.1778719 222.491992,36.5130594 222.051928,36.8027156 C220.320033,37.9361531 217.563278,39.7961531 213.778731,42.3827156 C212.634565,48.3986531 211.153018,53.1348719 209.334088,56.5942781 C207.515158,60.0527156 205.212158,61.7819344 202.425088,61.7819344 C200.928871,61.7819344 199.711362,61.3237156 198.772559,60.4092156 C197.832779,59.4927781 197.364356,58.2944344 197.364356,56.8122469 C197.364356,55.4453406 197.6724,54.0658406 198.288489,52.6708406 C198.904578,51.2758406 200.055589,49.6628719 201.7425,47.8319344 C203.430389,46.0009969 205.813578,43.9084969 208.894024,41.5544344 L209.026043,40.7261531 C206.707396,41.6852156 204.433734,42.1647469 202.205056,42.1647469 C198.918269,42.1647469 196.028518,41.5321531 193.535802,40.2679344 C191.042107,39.0037156 189.104849,37.2095906 187.726961,34.8845906 C186.348095,32.5595906 185.658662,29.8567781 185.658662,26.7761531 C185.658662,22.4749031 186.480114,18.6744969 188.123018,15.3759031 C189.765923,12.0782781 192.031762,9.52077812 194.922491,7.70340312 C197.811265,5.88796562 201.045244,4.97927812 204.625406,4.97927812 C208.057903,4.97927812 210.632764,5.77171562 212.349013,7.35465312 C214.065261,8.93952812 214.922896,11.0388094 214.922896,13.6544344 C214.922896,15.3691219 214.607028,16.7428094 213.977248,17.7735594 C213.345513,18.8062469 212.443871,19.3216219 211.270368,19.3216219 C210.478253,19.3216219 209.839672,19.1327156 209.355602,18.7549031 C208.871532,18.3770906 208.629986,17.8539656 208.629986,17.1855281 C208.629986,16.8958719 208.688661,16.4008406 208.806011,15.7033406 C208.983015,14.8895906 209.070049,14.2502156 209.070049,13.7852156 C209.070049,12.5645906 208.696484,11.6200594 207.948376,10.9516219 C207.19929,10.2831844 205.945597,9.94896562 204.185343,9.94896562 C202.043699,9.94896562 200.055589,10.5592781 198.222969,11.7799031 C196.38937,13.0005281 194.914668,14.8246844 193.79984,17.2504344 C192.684034,19.6781219 192.127598,22.5911531 192.127598,25.9914656 C192.127598,29.4789656 193.088892,32.1749969 195.009526,34.0776219 C196.931137,35.9821844 199.711362,36.9334969 203.349222,36.9334969 C205.373515,36.9334969 207.48582,36.4830281 209.686139,35.5820906 L210.302228,30.2636531 L205.813578,30.2636531 C204.991148,30.2636531 204.361368,30.0669969 203.921304,29.6746531 C203.482219,29.2832781 203.261209,28.6361531 203.261209,27.7352156 C203.261209,26.9214656 203.482219,26.2820906 203.921304,25.8170906 C204.361368,25.3530594 204.94812,25.1195906 205.682537,25.1195906 L213.91075,25.1195906 C214.556177,25.1195906 215.092076,25.3307781 215.516493,25.7521844 C215.941888,26.1735906 216.111068,26.7761531 216.023056,27.5608406 C215.935043,28.4908406 215.641667,30.5978719 215.142928,33.8819344 L214.658858,37.1950594 C217.005864,35.4513094 219.147508,33.9400594 221.084766,32.6613094 C221.464199,32.4288094 221.802559,32.3125594 222.095934,32.3125594 C222.476345,32.3125594 222.778522,32.4946844 222.998554,32.8579656" id="Fill-18" fill="#61C092"></path>
                        <path d="M223.74588,40.3554125 C222.910737,39.1493187 222.492187,37.6458187 222.492187,35.8439437 C222.492187,33.6642562 222.637897,31.665725 222.932251,29.8493187 C223.224649,28.0338812 223.708719,26.1080062 224.383483,24.0726625 C224.676859,23.2007875 225.088563,22.5769125 225.616639,22.1991 C226.143738,21.8212875 226.980837,21.6314125 228.125002,21.6314125 C228.769451,21.6314125 229.217338,21.7341 229.467686,21.9375375 C229.715099,22.140975 229.840273,22.4461312 229.840273,22.8530062 C229.840273,23.0855062 229.678916,23.8701937 229.356203,25.2070687 C229.062827,26.2823812 228.828126,27.255975 228.653079,28.1268812 C228.065349,31.1784437 227.771974,33.2137875 227.771974,34.230975 C227.771974,34.8412875 227.845317,35.269475 227.992983,35.5165062 C228.138693,35.7635375 228.373394,35.8875375 228.696107,35.8875375 C229.137149,35.8875375 229.686739,35.4516 230.346835,34.579725 C231.006931,33.70785 231.71201,32.3855062 232.459141,30.611725 C233.207249,28.8398812 233.933843,26.6601937 234.637945,24.0726625 C234.871668,23.2007875 235.231542,22.5769125 235.715612,22.1991 C236.199682,21.8212875 236.926276,21.6314125 237.894416,21.6314125 C238.568202,21.6314125 239.038582,21.7118187 239.301642,21.8716625 C239.566658,22.0315062 239.697699,22.3298812 239.697699,22.7658187 C239.697699,23.4923812 239.331957,25.4831625 238.598518,28.7381625 C237.777066,32.4581625 237.36634,34.7541 237.36634,35.625975 C237.36634,36.1781625 237.482712,36.60635 237.718391,36.9115062 C237.952113,37.2166625 238.261136,37.3687562 238.641546,37.3687562 C239.228298,37.3687562 239.925554,37.0141937 240.732338,36.3011937 C241.539121,35.5891625 242.617766,34.4344125 243.967295,32.835975 C244.319346,32.4291 244.714425,32.2246937 245.155467,32.2246937 C245.535877,32.2246937 245.837077,32.4000375 246.057108,32.7478187 C246.27714,33.0975375 246.386667,33.5761 246.386667,34.1873812 C246.386667,35.3498812 246.10796,36.2508187 245.551524,36.889225 C244.290008,38.4305062 242.932656,39.694725 241.480446,40.6818812 C240.028236,41.670975 238.378486,42.1650375 236.529241,42.1650375 C235.122015,42.1650375 234.087376,41.6273812 233.427281,40.5520687 C232.768163,39.4767562 232.437626,37.9655062 232.437626,36.01735 C231.93791,37.9945687 231.189801,39.5126 230.193302,40.5733812 C229.194846,41.6341625 228.125002,42.1650375 226.980837,42.1650375 C225.660646,42.1650375 224.582001,41.5615062 223.74588,40.3554125" id="Fill-20" fill="#61C092"></path>
                        <path d="M250.391247,55.0248062 C251.300712,53.3391812 252.210177,50.53465 253.119642,46.6112125 C250.85967,48.500275 249.225567,50.2217437 248.212443,51.7765875 C247.200296,53.3314312 246.69569,54.6905875 246.69569,55.8530875 C246.69569,56.34715 246.78957,56.754025 246.981242,57.0737125 C247.170958,57.3934 247.486826,57.5532437 247.92689,57.5532437 C248.659352,57.5532437 249.481782,56.7104312 250.391247,55.0248062 M268.103321,32.8578687 C268.324331,33.22115 268.433858,33.6784 268.433858,34.2305875 C268.433858,34.8999937 268.331176,35.4231187 268.125813,35.7999625 C267.92045,36.177775 267.598715,36.5129625 267.158651,36.8026187 L258.70845,42.4262125 C257.593622,48.44215 256.134567,53.1715875 254.329328,56.6164625 C252.526045,60.0594 250.22989,61.7818375 247.44282,61.7818375 C245.946604,61.7818375 244.729094,61.3236187 243.790291,60.4091187 C242.851489,59.4926812 242.383066,58.2943375 242.383066,56.81215 C242.383066,55.4462125 242.696978,54.0512125 243.327736,52.62715 C243.959472,51.2030875 245.132975,49.5678375 246.849223,47.7223687 C248.565471,45.8769 250.992667,43.7630875 254.131788,41.3799625 L254.263807,40.3773062 C254.46917,39.3029625 254.703871,37.7616812 254.968887,35.7563687 C254.381157,37.8488687 253.559705,39.440525 252.503552,40.5303687 C251.4474,41.6202125 250.331594,42.16465 249.159068,42.16465 C247.839855,42.16465 246.76121,41.5620875 245.925089,40.355025 C245.088968,39.1499 244.670419,37.6464 244.670419,35.8435562 C244.670419,33.6638687 244.817107,31.6663062 245.11146,29.8499 C245.40288,28.0334937 245.887928,26.1076187 246.562693,24.0732437 C246.856068,23.2013687 247.267772,22.576525 247.795849,22.1987125 C248.322947,21.8218687 249.159068,21.6319937 250.303234,21.6319937 C250.947683,21.6319937 251.39557,21.7337125 251.645917,21.93715 C251.894309,22.1405875 252.019482,22.4457437 252.019482,22.8526187 C252.019482,23.0851187 251.858126,23.8698062 251.535412,25.2066812 C251.242036,26.2819937 251.007336,27.2555875 250.83131,28.1274625 C250.59661,29.319025 250.391247,30.4602125 250.215221,31.5500562 C250.040174,32.6399 249.951183,33.5330875 249.951183,34.2305875 C249.951183,35.3349625 250.259228,35.88715 250.875317,35.88715 C251.31538,35.88715 251.865949,35.4512125 252.526045,34.5793375 C253.185162,33.7074625 253.890242,32.3851187 254.63835,30.6123062 C255.385481,28.8404625 256.113052,26.660775 256.816176,24.0732437 C257.050877,23.2013687 257.410751,22.576525 257.894821,22.1987125 C258.378891,21.8218687 259.104508,21.6319937 260.072648,21.6319937 C260.747412,21.6319937 261.216813,21.7191812 261.480851,21.8935562 C261.74489,22.0679312 261.876909,22.3585562 261.876909,22.7654312 C261.876909,23.4919937 261.49552,25.9913687 260.732743,30.2635562 L259.588578,37.28215 C261.847571,35.596525 264.04789,34.0562125 266.189533,32.6612125 C266.570921,32.4287125 266.908303,32.3124625 267.201679,32.3124625 C267.583068,32.3124625 267.884267,32.4945875 268.103321,32.8578687" id="Fill-22" fill="#61C092"></path>
                    </g>
                </g>
            </g>
        </g>
    </g>
</svg>