<?xml version="1.0" encoding="UTF-8" standalone="no"?>
<svg width="163px" height="85px" viewBox="0 0 163 85" version="1.1" xmlns="http://www.w3.org/2000/svg" xmlns:xlink="http://www.w3.org/1999/xlink">
    <!-- Generator: Sketch 42 (36781) - http://www.bohemiancoding.com/sketch -->
    <title>Mous-Scroll</title>
    <desc>Created with Sketch.</desc>
    <defs>
        <filter x="-50%" y="-50%" width="200%" height="200%" filterUnits="objectBoundingBox" id="filter-1">
            <feOffset dx="0" dy="2" in="SourceAlpha" result="shadowOffsetOuter1"></feOffset>
            <feGaussianBlur stdDeviation="2" in="shadowOffsetOuter1" result="shadowBlurOuter1"></feGaussianBlur>
            <feColorMatrix values="0 0 0 0 0   0 0 0 0 0   0 0 0 0 0  0 0 0 0.5 0" type="matrix" in="shadowBlurOuter1" result="shadowMatrixOuter1"></feColorMatrix>
            <feMerge>
                <feMergeNode in="shadowMatrixOuter1"></feMergeNode>
                <feMergeNode in="SourceGraphic"></feMergeNode>
            </feMerge>
        </filter>
        <polygon id="path-2" points="1.61386475e-14 76.9270598 1.61386475e-14 0.135281882 154.084776 0.135281882 154.084776 76.9270598 0 76.9270598"></polygon>
    </defs>
    <g id="Website" stroke="none" stroke-width="1" fill="none" fill-rule="evenodd">
        <g id="General-Design" transform="translate(-672.000000, -630.000000)">
            <g id="Mous-Scroll" filter="url(#filter-1)" transform="translate(669.000000, 629.000000)">
                <g id="Group-3" transform="translate(0.000000, 0.864800)">
                    <mask id="mask-3" fill="white">
                        <use xlink:href="#path-2"></use>
                    </mask>
                    <g id="Clip-2"></g>
                </g>
                <path d="M9.8603,33.3843 C17.8313,37.8683 106.8303,78.2473 112.4253,79.3423 C118.0203,80.4373 129.9193,80.7103 148.3523,70.7473 C166.7843,60.7833 160.8063,51.9423 160.8063,51.9423 L110.9893,30.8933 L27.7943,18.4393 C27.7943,18.4393 15.5233,21.6153 10.3243,26.1033 C7.8423,28.2463 7.2843,31.9353 9.8603,33.3843" id="Fill-4" fill="#898583"></path>
                <path d="M9.8603,31.1426 C17.8313,35.6256 105.6423,75.4926 112.4253,77.1006 C119.2093,78.7096 129.9193,78.4686 148.3523,68.5056 C166.7843,58.5416 160.8063,49.7006 160.8063,49.7006 L110.9893,28.6516 L27.7943,16.1976 C27.7943,16.1976 15.2383,19.6406 9.8923,24.0506 C7.1823,26.2866 7.1793,29.6346 9.8603,31.1426" id="Fill-6" fill="#C3BEBB"></path>
                <g id="Group-4" transform="translate(7.000000, 3.000000)">
                    <path d="M151.7229,53.9538 C155.5729,50.3158 155.3039,44.0838 151.2019,40.7338 C103.3229,1.6318 55.1119,0.1708 53.0009,0.0918 C53.0009,0.0918 39.2269,-0.7512 20.7949,8.7138 C10.3559,14.0748 4.5129,18.6748 1.4079,21.6568 C-0.0651,23.0718 0.7119,25.5598 2.7279,25.8888 C17.8129,28.3548 57.4989,33.1598 98.6359,68.0138 C101.4309,70.3818 105.0419,71.5578 108.6909,71.2348 C114.4979,70.7188 124.0219,69.0618 135.5999,64.0148 C143.4249,60.6038 148.4779,57.0188 151.7229,53.9538" id="Fill-8" fill="#E8E9EB"></path>
                    <path d="M29.8886,11.3317 C49.3346,1.3457 63.8666,2.2357 63.8666,2.2357 C64.4886,2.2587 68.9156,2.3977 76.0726,3.4847 C62.6706,0.3977 53.8756,0.1247 53.0016,0.0917 C53.0016,0.0917 39.2266,-0.7513 20.7946,8.7137 C10.3556,14.0747 4.5126,18.6757 1.4076,21.6577 C-0.0654,23.0727 0.7126,25.5597 2.7286,25.8897 C4.4036,26.1627 6.3856,26.4667 8.6366,26.8357 C8.6416,26.1787 8.8886,25.5127 9.4366,24.9867 C12.7116,21.8407 18.8756,16.9867 29.8886,11.3317" id="Fill-10" fill="#E5E5E8"></path>
                    <path d="M151.2018,40.7335 C141.7728,33.0335 132.3328,26.7985 123.2338,21.7405 C119.0318,26.8445 112.9688,31.9785 104.2358,35.6805 C90.3518,41.5645 75.3568,44.0695 64.8158,45.1355 C75.6318,50.7995 87.0768,58.2205 98.6358,68.0135 C101.4308,70.3825 105.0418,71.5585 108.6908,71.2345 C114.4978,70.7195 124.0218,69.0625 135.5998,64.0145 C143.4258,60.6045 148.4778,57.0195 151.7228,53.9535 C155.5728,50.3165 155.3048,44.0835 151.2018,40.7335" id="Fill-12" fill="#E8E9EB"></path>
                </g>
                <path d="M161.1455,56.2126 C161.1455,56.2126 161.0745,56.3646 160.9385,56.6586 C160.7915,56.9516 160.5605,57.3836 160.1905,57.9026 C160.0055,58.1626 159.7845,58.4426 159.5215,58.7326 C159.2555,59.0316 158.9415,59.3196 158.6375,59.6116 C157.9945,60.2176 157.2285,60.8926 156.3455,61.6016 C154.5735,63.0186 152.3125,64.6006 149.5815,66.1756 C146.8655,67.7466 143.6345,69.3296 140.0815,70.7706 C136.4935,72.2446 132.5385,73.6336 128.2415,74.7706 C126.0955,75.3406 123.8675,75.8466 121.5675,76.2596 C120.4185,76.4746 119.2485,76.6416 118.0645,76.7966 C116.8705,76.9306 115.7115,77.0986 114.3825,77.1036 C111.7985,77.0846 109.1775,76.3776 106.9035,75.0006 C106.3345,74.6586 105.7835,74.2816 105.2645,73.8626 L103.8075,72.6796 C102.8405,71.8936 101.8685,71.1026 100.8925,70.3086 C96.9595,67.2596 92.8345,64.2786 88.5955,61.4736 C84.3535,58.6726 80.0225,56.0026 75.6665,53.5306 C71.3025,51.0766 66.9305,48.7966 62.6295,46.7396 C58.3235,44.6966 54.1105,42.8176 50.0335,41.2886 C45.9775,39.7396 41.9885,38.6956 38.2835,37.7496 C30.8665,35.9016 24.6265,34.5266 20.2565,33.5986 C15.8805,32.6976 13.3795,32.1826 13.3795,32.1826 L13.3705,32.1806 C13.0905,32.1226 12.9105,31.8496 12.9675,31.5696 C13.0245,31.2946 13.2905,31.1166 13.5645,31.1646 C13.5645,31.1646 16.0845,31.6096 20.4955,32.3886 C24.8965,33.2166 31.1955,34.3386 38.6875,36.0916 C42.4235,36.9816 46.5055,37.9796 50.6895,39.5006 C54.8615,40.9986 59.1635,42.7996 63.5175,44.8626 C67.8755,46.9176 72.3025,49.1966 76.7235,51.6516 C81.1345,54.1246 85.5255,56.7986 89.8295,59.6096 C94.1165,62.4506 98.2565,65.4966 102.2635,68.6336 C103.2355,69.4326 104.2035,70.2286 105.1655,71.0206 L106.5995,72.1966 C107.0425,72.5596 107.5135,72.8856 108.0005,73.1806 C109.9425,74.3746 112.1915,74.9896 114.3945,75.0196 C115.4645,75.0266 116.6675,74.8716 117.8125,74.7466 C118.9625,74.6026 120.1015,74.4426 121.2245,74.2566 C123.4705,73.8906 125.6555,73.4326 127.7645,72.9096 C131.9815,71.8686 135.9025,70.5616 139.4305,69.1806 C143.0015,67.7836 146.1325,66.3456 148.8555,64.8776 C151.5635,63.4106 153.8055,61.9286 155.5635,60.5996 C157.2945,59.2436 158.6545,58.1316 159.3055,57.2476 C159.6485,56.8026 159.8655,56.4286 160.0045,56.1736 C160.1385,55.9106 160.2075,55.7756 160.2075,55.7756 L160.2155,55.7596 C160.3455,55.5056 160.6575,55.4036 160.9115,55.5336 C161.1605,55.6606 161.2625,55.9616 161.1455,56.2126" id="Fill-14" fill="#AAAAAA"></path>
                <path d="M161.1455,54.4363 C161.1455,54.4363 161.0745,54.5873 160.9385,54.8813 C160.7915,55.1753 160.5605,55.6073 160.1905,56.1263 C160.0055,56.3853 159.7845,56.6653 159.5215,56.9563 C159.2555,57.2553 158.9415,57.5433 158.6375,57.8353 C157.9945,58.4413 157.2285,59.1163 156.3455,59.8253 C154.5735,61.2423 152.3125,62.8243 149.5815,64.3993 C146.8655,65.9703 143.6345,67.5533 140.0815,68.9943 C136.4935,70.4673 132.5385,71.8573 128.2415,72.9943 C126.0955,73.5643 123.8675,74.0693 121.5675,74.4833 C120.4185,74.6983 119.2485,74.8643 118.0645,75.0203 C116.8705,75.1533 115.7115,75.3223 114.3825,75.3273 C111.7985,75.3083 109.1775,74.6013 106.9035,73.2243 C106.3345,72.8823 105.7835,72.5053 105.2645,72.0853 L103.8075,70.9033 C102.8405,70.1163 101.8685,69.3263 100.8925,68.5313 C96.9595,65.4833 92.8345,62.5013 88.5955,59.6973 C84.3535,56.8953 80.0225,54.2253 75.6665,51.7533 C71.3025,49.3003 66.9305,47.0193 62.6295,44.9633 C58.3235,42.9203 54.1105,41.0413 50.0335,39.5123 C45.9775,37.9633 41.9885,36.9193 38.2835,35.9733 C30.8665,34.1243 24.6265,32.7503 20.2565,31.8223 C15.8805,30.9213 13.3795,30.4063 13.3795,30.4063 L13.3705,30.4043 C13.0905,30.3463 12.9105,30.0733 12.9675,29.7933 C13.0245,29.5183 13.2905,29.3403 13.5645,29.3883 C13.5645,29.3883 16.0845,29.8333 20.4955,30.6113 C24.8965,31.4403 31.1955,32.5623 38.6875,34.3143 C42.4235,35.2053 46.5055,36.2033 50.6895,37.7233 C54.8615,39.2213 59.1635,41.0233 63.5175,43.0863 C67.8755,45.1413 72.3025,47.4203 76.7235,49.8753 C81.1345,52.3483 85.5255,55.0223 89.8295,57.8333 C94.1165,60.6743 98.2565,63.7203 102.2635,66.8563 C103.2355,67.6563 104.2035,68.4523 105.1655,69.2443 L106.5995,70.4203 C107.0425,70.7833 107.5135,71.1083 108.0005,71.4043 C109.9425,72.5973 112.1915,73.2133 114.3945,73.2433 C115.4645,73.2503 116.6675,73.0953 117.8125,72.9703 C118.9625,72.8253 120.1015,72.6663 121.2245,72.4803 C123.4705,72.1143 125.6555,71.6563 127.7645,71.1333 C131.9815,70.0913 135.9025,68.7853 139.4305,67.4033 C143.0015,66.0073 146.1325,64.5683 148.8555,63.1013 C151.5635,61.6333 153.8055,60.1523 155.5635,58.8233 C157.2945,57.4673 158.6545,56.3553 159.3055,55.4713 C159.6485,55.0263 159.8655,54.6523 160.0045,54.3973 C160.1385,54.1343 160.2075,53.9993 160.2075,53.9993 L160.2155,53.9833 C160.3455,53.7283 160.6575,53.6273 160.9115,53.7573 C161.1605,53.8843 161.2625,54.1853 161.1455,54.4363" id="Fill-16" fill="#FFFFFF"></path>
                <path d="M37.1894719,12.9497849 C35.5256725,12.9497849 35.4685811,13.682458 36.3908156,14.2427693 C37.1043346,14.6762739 45.8265054,15.1524203 45.8265054,15.1524203 C45.8265054,15.1524203 48.1488459,15.2285188 49.3132565,15.3205833 C50.2799675,15.3970167 50.7166355,15.4210229 50.7979288,15.3205833 C51.2215081,14.797242 50.9457103,13.9272674 50.3775824,13.8414304 C50.0422947,13.7907726 49.1598196,13.6984023 48.7664604,13.6504996 C44.3652966,13.1145329 41.2216535,12.8229323 37.1894719,12.9497849 Z" id="Fill-18" fill="#B5B5B5"></path>
            </g>
        </g>
    </g>
</svg>