<?xml version="1.0" encoding="UTF-8" standalone="no"?>
<svg width="34px" height="70px" viewBox="0 0 34 70" version="1.1" xmlns="http://www.w3.org/2000/svg" xmlns:xlink="http://www.w3.org/1999/xlink">
    <!-- Generator: Sketch 42 (36781) - http://www.bohemiancoding.com/sketch -->
    <title>Mouse-bottom</title>
    <desc>Created with Sketch.</desc>
    <defs></defs>
    <g id="Website" stroke="none" stroke-width="1" fill="none" fill-rule="evenodd">
        <g id="General-Design" transform="translate(-846.000000, -637.000000)">
            <g id="#hello" transform="translate(-1.000000, 0.000000)">
                <g id="Mouse-bottom" transform="translate(848.000000, 638.000000)">
                    <path d="M19.2086095,54.9230901 C27.5232762,54.9230901 31.2489905,48.1527495 31.2489905,39.8772989 L31.2489905,15.0456396 C31.2489905,6.77018901 24.4459429,-0.000151648352 16.1312762,-0.000151648352 L15.1179429,-0.000151648352 C6.80327619,-0.000151648352 0.000228571429,6.77018901 0.000228571429,15.0456396 L0.000228571429,39.8772989 C0.000228571429,48.1527495 3.33432381,54.9230901 11.6497524,54.9230901" id="Stroke-1" stroke="#FEFEFE" stroke-width="2"></path>
                    <polygon id="Fill-3" fill="#FEFEFE" points="15.249981 69 8.77074286 62.5511538 10.0568381 61.2712418 14.3402667 65.5340769 14.3402667 60.4621978 14.3402667 50.4541648 16.1596952 50.4541648 16.1596952 60.4621978 16.1596952 65.5340769 20.4431238 61.2712418 21.729219 62.5511538"></polygon>
                    <path d="M15.2657524,19.8216527 L15.2322286,19.8216527 C14.813181,19.8216527 14.4703238,19.480444 14.4703238,19.063411 L14.4703238,10.5081692 C14.4703238,10.0911363 14.813181,9.74992747 15.2322286,9.74992747 L15.2657524,9.74992747 C15.6848,9.74992747 16.0276571,10.0911363 16.0276571,10.5081692 L16.0276571,19.063411 C16.0276571,19.480444 15.6848,19.8216527 15.2657524,19.8216527" id="Fill-5" fill="#FEFEFE"></path>
                </g>
            </g>
        </g>
    </g>
</svg>