<?xml version="1.0" encoding="UTF-8" standalone="no"?>
<svg width="512px" height="345px" viewBox="0 0 512 345" version="1.1" xmlns="http://www.w3.org/2000/svg" xmlns:xlink="http://www.w3.org/1999/xlink">
    <!-- Generator: Sketch 42 (36781) - http://www.bohemiancoding.com/sketch -->
    <title>Tablet</title>
    <desc>Created with Sketch.</desc>
    <defs>
        <path d="M28.7905157,14.3432344 C28.790488,6.62336477 22.4695244,0.357490606 14.6894341,0.352629108 C6.89949042,0.352629108 0.576175666,6.61848357 0.576175666,14.3532207 C0.57617274,14.3569326 0.576171273,14.3606442 0.576171262,14.3643554 L0.576171262,14.364447 C0.57619862,22.0879459 6.88621108,28.3489542 14.6772528,28.361108 C22.4684147,28.361108 28.7856388,22.0903897 28.7905113,14.3544366 C28.7905142,14.3507329 28.7905157,14.3470295 28.7905157,14.3433264 L28.7905157,14.3432344 L28.7905157,14.3432344 Z" id="path-1"></path>
        <path d="M1.49282257,3.06066051 C2.28582164,3.06065745 2.91703784,2.41701049 2.91703784,1.62574178 C2.91703784,0.834150235 2.2775194,0.183610329 1.47720774,0.183610329 C0.687859261,0.193338028 0.0385957725,0.829286385 0.0385957725,1.62574178 C0.0385957725,2.41701049 0.679430505,3.06065746 1.46180448,3.06066051 L1.46180448,3.06066051 C1.46693286,3.06066053 1.47206733,3.0606329 1.47720774,3.06057746 C1.48241955,3.0606329 1.48762453,3.06066053 1.49282257,3.06066051 L1.49282649,3.06066051 L1.49282257,3.06066051 Z" id="path-3"></path>
    </defs>
    <g id="Website" stroke="none" stroke-width="1" fill="none" fill-rule="evenodd">
        <g id="General-Design" transform="translate(-536.000000, -1590.000000)">
            <g id="Tablet" transform="translate(793.000000, 1762.000000) rotate(-90.000000) translate(-793.000000, -1762.000000) translate(617.000000, 1503.000000)">
                <path d="M26.7355254,0 C19.6728055,0.00121596244 13.0218137,2.751723 7.99824402,7.74446479 L7.99824402,7.74446479 C2.96614745,12.7432864 0.192464599,19.3666338 0.183937686,26.3876009 L0.183937686,26.3876009 L0,491.19046 C0,505.713915 11.8889524,517.569549 26.5040806,517.60846 L26.5040806,517.60846 L325.171376,517.73492 C332.241404,517.73492 338.90945,514.984413 343.95251,509.981944 L343.95251,509.981944 C348.983388,504.981906 351.753417,498.359775 351.763162,491.333944 L351.763162,491.333944 L351.949536,26.5347324 C351.949536,12.0051972 340.052056,0.155643192 325.372367,0.116732394 L325.372367,0.116732394 L26.7745056,0 L26.7355254,0 Z" id="Fill-1"></path>
                <g id="Group-7" transform="translate(2.436261, 1.993136)">
                    <path d="M321.232551,0.160698122 L25.2305253,0.0354539906 C11.8493632,0.0293741784 0.912988713,10.945069 0.90324367,24.2951207 L0.725396636,487.192567 C0.714433463,500.540186 11.6495898,511.461961 25.0234432,511.464393 L321.029123,511.589637 C334.396886,511.596933 345.351533,500.675158 345.351533,487.32997 L345.52938,24.4313085 C345.545215,11.0849047 334.600314,0.160698122 321.232551,0.160698122" id="Fill-3" fill="#ECECED"></path>
                    <path d="M337.40847,459.663785 C337.407252,460.61102 336.630085,461.386804 335.681161,461.385588 L11.2236096,461.254264 C10.2746861,461.253048 9.49873701,460.477264 9.49873701,459.530029 L9.65587583,51.8239023 C9.65587583,50.8754516 10.433043,50.1008836 11.3831847,50.1008836 L335.84439,50.2334235 C336.793314,50.2334235 337.570481,51.0092075 337.569263,51.9576582 L337.40847,459.663785 Z" id="Fill-5" fill="#4D4D4D"></path>
                </g>
                <g id="Group-10" transform="translate(160.793209, 472.744310)">
                    <mask id="mask-2" fill="white">
                        <use xlink:href="#path-1"></use>
                    </mask>
                    <g id="Clip-9"></g>
                    <path d="M0.576175666,14.3532207 C0.570085014,22.0818779 6.8824366,28.3489484 14.6772528,28.361108 L14.6772528,28.361108 C22.4684147,28.361108 28.7856388,22.0903897 28.7905113,14.3544366 L28.7905113,14.3544366 C28.796602,6.62942723 22.4732872,0.357492958 14.6894341,0.352629108 L14.6894341,0.352629108 C6.89949042,0.352629108 0.576175666,6.61848357 0.576175666,14.3532207" id="Fill-8" mask="url(#mask-2)"></path>
                </g>
                <path d="M188.509208,487.263388 C188.504335,494.44851 182.667054,500.275402 175.469122,500.270538 C168.267535,500.263242 162.435127,494.443646 162.439999,487.256092 C162.444872,480.061242 168.282153,474.236782 175.480085,474.245294 C182.681672,474.245294 188.51408,480.074618 188.509208,487.263388" id="Fill-11" fill="#CCCCCC"></path>
                <path d="M162.438903,487.256822 C162.435249,494.44316 168.267657,500.262756 175.470462,500.271268 L175.470462,500.271268 C182.667176,500.274915 188.504457,494.449239 188.509329,487.262901 L188.509329,487.262901 C188.509329,487.208183 188.509329,487.160761 188.499584,487.10969 L188.499584,487.10969 C184.890264,488.143258 180.373437,488.754887 175.474116,488.754887 L175.474116,488.754887 C170.565051,488.750023 166.048223,488.131099 162.449866,487.098746 L162.449866,487.098746 C162.449866,487.149817 162.438903,487.202103 162.438903,487.256822" id="Fill-13"></path>
                <g id="Group-19" transform="translate(126.685559, 2.055360)">
                    <path d="M45.5971779,480.872635 C44.7785943,480.865339 44.1086226,481.531687 44.1086226,482.354893 L44.1086226,488.229208 C44.1086226,489.046335 44.7737217,489.712682 45.5923054,489.713898 L51.484402,489.713898 C52.298113,489.717546 52.9680848,489.048767 52.9680848,488.23164 L52.9680848,482.354893 C52.9680848,481.538982 52.3078581,480.872635 51.484402,480.875067 L45.5971779,480.872635 Z M51.484402,490.202715 L45.5923054,490.202715 C44.5008605,490.192987 43.6262429,489.31263 43.6262429,488.229208 L43.6262429,482.347598 C43.6262429,481.266607 44.5008605,480.38017 45.5971779,480.38017 L51.484402,480.385034 C52.5721924,480.385034 53.4602094,481.269039 53.4602094,482.354893 L53.4602094,488.229208 C53.4602094,489.323574 52.5721924,490.202715 51.484402,490.202715 L51.484402,490.202715 Z" id="Fill-15" fill="#8E8E91"></path>
                    <path d="M218.258509,426.139734 L218.437574,24.3687196 C218.45341,11.0235318 207.507291,0.0981092425 194.139528,0.0981092425 L0.373966024,0.0178557214 L218.258509,426.139734 Z" id="Fill-17"></path>
                </g>
                <path d="M171.935448,29.3277981 C171.935448,31.3280563 173.559215,32.9452864 175.564258,32.9525822 L175.564258,32.9525822 C177.564428,32.9525822 179.19185,31.3341362 179.19185,29.3277981 L179.19185,29.3277981 C179.19185,27.3275399 177.569301,25.7017981 175.564258,25.7017981 L175.564258,25.7017981 C173.559215,25.7005822 171.935448,27.3214601 171.935448,29.3277981" id="Fill-20"></path>
                <path d="M174.556864,26.0969859 C174.022105,26.2611408 173.548252,26.5505399 173.17185,26.9299202 L173.17185,26.9299202 C172.948932,27.1487934 172.755249,27.3980657 172.610292,27.6753052 L172.610292,27.6753052 C172.138875,28.4997277 172.065787,29.4737136 172.353266,30.3382629 L172.353266,30.3382629 C172.505533,30.8562629 172.779612,31.3268404 173.162105,31.7135164 L173.162105,31.7135164 C173.548252,32.0941127 174.016014,32.3883756 174.556864,32.5488826 L174.556864,32.5488826 C175.260943,32.7774836 176.027147,32.7495164 176.716609,32.5063239 L176.716609,32.5063239 C177.178281,32.3458169 177.614371,32.0722254 177.966411,31.7135164 L177.966411,31.7135164 C178.358649,31.3329202 178.63151,30.8562629 178.795958,30.3431268 L178.795958,30.3431268 C179.062728,29.4785775 178.993295,28.5045915 178.527969,27.681385 L178.527969,27.681385 C178.373267,27.3980657 178.199074,27.1560892 177.966411,26.9323521 L177.966411,26.9323521 C177.614371,26.5736432 177.178281,26.3146432 176.716609,26.1407606 L176.716609,26.1407606 C176.346298,26.0094366 175.95406,25.9413427 175.561822,25.9413427 L175.561822,25.9413427 C175.223181,25.9413427 174.883323,25.9924131 174.556864,26.0969859" id="Fill-22"></path>
                <g id="Group-26" transform="translate(174.080960, 27.702056)">
                    <mask id="mask-4" fill="white">
                        <use xlink:href="#path-3"></use>
                    </mask>
                    <g id="Clip-25"></g>
                    <path d="M0.0385957725,1.62574178 C0.0385957725,2.42219718 0.687859261,3.0690892 1.47720774,3.06057746 L1.47720774,3.06057746 C2.2775194,3.0690892 2.91703784,2.42219718 2.91703784,1.62574178 L2.91703784,1.62574178 C2.91703784,0.834150235 2.2775194,0.183610329 1.47720774,0.183610329 L1.47720774,0.183610329 C0.687859261,0.193338028 0.0385957725,0.829286385 0.0385957725,1.62574178" id="Fill-24" mask="url(#mask-4)"></path>
                </g>
                <path d="M174.397289,29.3253662 C174.397289,29.9673944 174.918649,30.4902582 175.554513,30.4866103 L175.554513,30.4866103 C176.198904,30.4902582 176.721482,29.9673944 176.721482,29.3277981 L176.721482,29.3277981 C176.725136,28.6869859 176.198904,28.1689859 175.554513,28.1689859 L175.554513,28.1689859 C174.918649,28.1689859 174.397289,28.683338 174.397289,29.3253662" id="Fill-27"></path>
                <path d="M174.675023,29.3277981 C174.675023,29.8093192 175.072133,30.2105869 175.554513,30.2105869 L175.554513,30.2105869 C176.055164,30.2105869 176.447402,29.816615 176.44253,29.3277981 L176.44253,29.3277981 C176.447402,28.8389812 176.045419,28.4462254 175.554513,28.4462254 L175.554513,28.4462254 C175.072133,28.4486573 174.675023,28.8389812 174.675023,29.3277981" id="Fill-29"></path>
                <path d="M166.852311,29.5818127 C166.852311,30.5156718 166.088544,31.2756484 165.13962,31.2756484 C164.20166,31.2756484 163.442764,30.5156718 163.452509,29.5757329 C163.442764,28.6382258 164.20166,27.8733854 165.13962,27.8733854 C166.088544,27.8770333 166.852311,28.6382258 166.852311,29.5818127" id="Fill-31" fill="#353637"></path>
            </g>
        </g>
    </g>
</svg>