<?xml version="1.0" encoding="UTF-8" standalone="no"?>
<svg width="84px" height="118px" viewBox="0 0 84 118" version="1.1" xmlns="http://www.w3.org/2000/svg" xmlns:xlink="http://www.w3.org/1999/xlink">
    <!-- Generator: Sketch 42 (36781) - http://www.bohemiancoding.com/sketch -->
    <title>CSS3_and_HTML5_logos_and_wordmarks</title>
    <desc>Created with Sketch.</desc>
    <defs></defs>
    <g id="Website" stroke="none" stroke-width="1" fill="none" fill-rule="evenodd">
        <g id="General-Design" transform="translate(-87.000000, -2379.000000)" fill-rule="nonzero">
            <g id="#tech" transform="translate(0.000000, 2118.000000)">
                <g id="Icons" transform="translate(0.000000, 136.000000)">
                    <g id="Group-6" transform="translate(70.000000, 107.000000)">
                        <g id="HTML5" transform="translate(0.000000, 17.000000)">
                            <g id="CSS3_and_HTML5_logos_and_wordmarks" transform="translate(17.000000, 1.000000)">
                                <g id="svg2">
                                    <g id="layer1" transform="translate(0.215178, 0.187097)">
                                        <g id="g3054" transform="translate(0.225713, 0.041374)">
                                            <polygon id="polygon3028" fill="#E44D26" points="83.3185096 22.9886798 75.7412022 107.56815 41.6809233 116.976785 7.71442629 107.581401 0.145144211 22.9886798"></polygon>
                                            <polygon id="polygon3030" fill="#F16529" points="41.7318269 109.785226 69.2541961 102.18242 75.7295081 29.9053892 41.7318269 29.9053892"></polygon>
                                            <polygon id="polygon3032" fill="#EBEBEB" points="27.0018678 50.6555172 41.7318269 50.6555172 41.7318269 40.2804532 41.6958275 40.2804532 15.6223782 40.2804532 15.8716227 43.0639066 18.4307926 71.6544493 41.7318269 71.6544493 41.7318269 61.2796138 27.9534452 61.2796138"></polygon>
                                            <polygon id="polygon3034" fill="#EBEBEB" points="29.3484805 76.8420955 23.7135374 76.8420955 18.8960336 76.8420955 20.3548132 93.1322552 41.6839041 99.0320433 41.7318269 99.018792 41.7318269 88.224485 41.6861971 88.2365939 30.0897937 85.1166038"></polygon>
                                            <polygon id="path3036" fill="#000000" points="7.88364655 0 13.1751046 0 13.1751046 5.20912244 18.015538 5.20912244 18.015538 0 23.3072253 0 23.3072253 15.7745022 18.0157673 15.7745022 18.0157673 10.4922693 13.1753339 10.4922693 13.1753339 15.7745022 7.88387585 15.7745022 7.88387585 0"></polygon>
                                            <polygon id="path3038" fill="#000000" points="30.2656635 5.23105559 25.607291 5.23105559 25.607291 0 40.2180164 0 40.2180164 5.23105559 35.5575802 5.23105559 35.5575802 15.7745022 30.2658928 15.7745022 30.2658928 5.23105559"></polygon>
                                            <polygon id="path3040" fill="#000000" points="42.5368843 0 48.054428 0 51.4484637 5.54268905 54.83906 0 60.3586673 0 60.3586673 15.7745022 55.0889924 15.7745022 55.0889924 7.95579218 51.4484637 13.5645091 51.3574333 13.5645091 47.7143824 7.95579218 47.7143824 15.7745022 42.5368843 15.7745022"></polygon>
                                            <polygon id="path3042" fill="#000000" points="62.9921291 0 68.2851922 0 68.2851922 10.5603534 75.7265273 10.5603534 75.7265273 15.7745022 62.9921291 15.7745022"></polygon>
                                            <polygon id="polygon3044" fill="#FFFFFF" points="41.6958275 71.6544493 54.5175874 71.6544493 53.3089694 85.1099781 41.6958275 88.2331669 41.6958275 99.0270169 63.0418862 93.1322552 63.1984952 91.3794312 65.6453102 64.0655804 65.8993699 61.2796138 63.0934778 61.2796138 41.6958275 61.2796138"></polygon>
                                            <polygon id="polygon3046" fill="#FFFFFF" points="41.6958275 50.630157 41.6958275 50.6555172 66.8133428 50.6555172 66.8133428 50.6555172 66.84682 50.6555172 67.0557084 48.323521 67.5301213 43.0639066 67.7791365 40.2804532 41.6958275 40.2804532 41.6958275 46.724229"></polygon>
                                        </g>
                                    </g>
                                </g>
                            </g>
                        </g>
                    </g>
                </g>
            </g>
        </g>
    </g>
</svg>